<svg id="Layer_1" data-name="Layer 1" xmlns="http://www.w3.org/2000/svg" viewBox="0 0 893.65 1000"><defs><style>.cls-1,.cls-2{fill:#50bbb5;}.cls-1{fill-opacity:0;}</style></defs><rect class="cls-1" width="869.56" height="1000"/><path class="cls-2" d="M326.62,0V956.5h-21.7V87C207.24,87,142.13,217.39,44.45,217.39V956.5H20.71C9.35,957-.51,967.87,0,979.26s11.36,21.25,22.73,20.72h824.8c11.46.16,22-10.26,22-21.74s-10.55-21.9-22-21.74H804.14V173.91C659.43,173.91,471.32,0,326.62,0ZM107.53,239.13H239.8c11.36,0,21.7,10.35,21.7,21.73v65.22c0,11.38-10.34,21.74-21.7,21.74H109.57c-11.37,0-21.71-10.36-21.71-21.74V260.86C87.86,250.13,96.86,240.13,107.53,239.13Zm282.17,0H522c11.36,0,21.7,10.35,21.7,21.73v65.22c0,11.38-10.34,21.74-21.7,21.74H391.74c-11.37,0-21.71-10.36-21.71-21.74V260.86C370,250.13,379,240.13,389.7,239.13Zm195.35,0H717.32c11.36,0,21.7,10.35,21.7,21.73v65.22c0,11.38-10.34,21.74-21.7,21.74H587.08c-11.36,0-21.7-10.36-21.7-21.74V260.86c0-10.73,9-20.73,19.67-21.73ZM107.53,391.3H239.8c11.36,0,21.7,10.35,21.7,21.73v65.22c0,11.38-10.34,21.74-21.7,21.74H109.57c-11.37,0-21.71-10.36-21.71-21.74V413C87.86,402.3,96.86,392.3,107.53,391.3Zm282.17,0H522c11.36,0,21.7,10.35,21.7,21.73v65.22c0,11.38-10.34,21.74-21.7,21.74H391.74C380.37,500,370,489.63,370,478.25V413C370,402.3,379,392.3,389.7,391.3Zm195.35,0H717.32c11.36,0,21.7,10.35,21.7,21.73v65.22c0,11.38-10.34,21.74-21.7,21.74H587.08c-11.36,0-21.7-10.36-21.7-21.74V413c0-10.73,9-20.73,19.67-21.73ZM107.53,543.47H239.8c11.36,0,21.7,10.35,21.7,21.73v65.22c0,11.38-10.34,21.74-21.7,21.74H109.57c-11.37,0-21.71-10.36-21.71-21.74V565.2C87.86,554.47,96.86,544.47,107.53,543.47Zm282.17,0H522c11.36,0,21.7,10.35,21.7,21.73v65.22c0,11.38-10.34,21.74-21.7,21.74H391.74c-11.37,0-21.71-10.36-21.71-21.74V565.2C370,554.47,379,544.47,389.7,543.47Zm195.35,0H717.32c11.36,0,21.7,10.35,21.7,21.73v65.22c0,11.38-10.34,21.74-21.7,21.74H587.08c-11.36,0-21.7-10.36-21.7-21.74V565.2c0-10.73,9-20.73,19.67-21.73ZM107.53,695.64H239.8c11.36,0,21.7,10.35,21.7,21.73v65.22c0,11.38-10.34,21.74-21.7,21.74H109.57c-11.37,0-21.71-10.36-21.71-21.74V717.37C87.86,706.64,96.86,696.64,107.53,695.64Zm282.17,0H522c11.36,0,21.7,10.35,21.7,21.73v65.22c0,11.38-10.34,21.74-21.7,21.74H391.74C380.37,804.33,370,794,370,782.59V717.37C370,706.64,379,696.64,389.7,695.64Zm195.35,0H739c11.36,0,21.7,10.35,21.7,21.73V956.5h-43.4V739.11H608.79V956.5H565.38V717.37c0-10.73,9-20.73,19.67-21.73Z"/><path d="M80.31,451.85h0a37.14,37.14,0,0,1-17.65.48q-8-1.79-11.21-6.92h0q-4.05-10.12,1.79-21.94A65.39,65.39,0,0,1,67,404.15h0Q105.23,368,177.26,336.89t160.28-54a1483.33,1483.33,0,0,1,176-34.58q87.66-11.7,156.58-8.47h0q24.93.84,64.28,6.08A471.18,471.18,0,0,1,813,263.43q39.12,12.29,62.73,35.06h0q33.39,34.47,4.53,81.93h0q-21.94,34-72,60.94T691.61,490q-66.66,21.47-138.22,38.52T416.25,559.42h0Q364,570.63,312.14,583t-70.36,21.83h0q24.81,28.62,77.28,57.6T432.59,719.7h0Q495.44,749.16,551,779.92t85.74,63.8q30.29,33,18.25,69.53h0q-3,5.6-10.62,9.3a36.85,36.85,0,0,1-16.69,3.82h-1.43q-9.54-.6-14.55-4.66a8.56,8.56,0,0,1-3.1-9.89h0q9.9-29.1-19.08-57.6t-80.74-56.65q-51.63-28-110.55-55.33h0Q329.8,710,273.86,678.32T193.6,613h0a9.31,9.31,0,0,1-.83-8.35h0q8.82-18.5,60.58-33.87T407.19,534h0q61.17-13.12,128.08-29t128.91-35.18q61.89-19.32,107.69-42.81t64.27-51.76h0Q858.09,340,834,315.07h0Q814.2,295.51,768.29,283T658.46,267.13h0q-61.31-2.62-141.8,8.23a1435.13,1435.13,0,0,0-162.3,31.72Q272.55,327.95,206,355.73t-99.45,59.15h0a40.33,40.33,0,0,0-7.87,11c-1.67,3.73-2.43,6.32-2.27,7.75h0q2.75,5.36-1.67,10.61T80.31,451.85ZM34.88,776.7h0q-9.44-1.31-13-5.84t-.12-10.26h0Q80.07,673.44,154,577.9h0q43.05-56.52,92.06-122.59h0q3.47-5.61,12.53-8.47a40.68,40.68,0,0,1,17.88-1.43h0q9.66,1.56,12.88,6.32t-.83,10.5h0q-48.66,66.18-92.07,122.83h0q-73.21,95-131.29,181.27h0q-3.22,4.77-10.5,7.75a41.28,41.28,0,0,1-15.26,2.86h0A40.78,40.78,0,0,1,34.88,776.7Z"/></svg>