<?xml version="1.0" encoding="utf-8"?>
<!-- Generator: Adobe Illustrator 26.3.0, SVG Export Plug-In . SVG Version: 6.00 Build 0)  -->
<svg version="1.1"
	 id="Layer_1" xmlns:dc="http://purl.org/dc/elements/1.1/" xmlns:svg="http://www.w3.org/2000/svg" xmlns:rdf="http://www.w3.org/1999/02/22-rdf-syntax-ns#" xmlns:cc="http://creativecommons.org/ns#" xmlns:sodipodi="http://sodipodi.sourceforge.net/DTD/sodipodi-0.dtd" xmlns:inkscape="http://www.inkscape.org/namespaces/inkscape"
	 xmlns="http://www.w3.org/2000/svg" xmlns:xlink="http://www.w3.org/1999/xlink" x="0px" y="0px" viewBox="0 0 1000 1000"
	 style="enable-background:new 0 0 1000 1000;" xml:space="preserve">
<style type="text/css">
	.st0{fill:#50BBB5;fill-opacity:0;}
	.st1{fill:#50BBB5;}
</style>
<g>
	<g transform="matrix(1,0,0,1,33.569602966308594,0)">
		<g>
			<rect x="301" y="309.7" class="st0" width="330.9" height="380.5"/>
			<g transform="translate(0,-952.36218)">
				<path class="st1" d="M425.3,1262.1v364H417v-330.9c-37.2,0-61.9,49.6-99.1,49.6v281.2c-3,0-6.1,0-9,0c-4.3,0.2-8.1,4.3-7.9,8.7
					s4.3,8.1,8.6,7.9h313.8c4.4,0.1,8.4-3.9,8.4-8.3c0-4.4-4-8.3-8.4-8.3H607v-297.8C551.9,1328.3,480.3,1262.1,425.3,1262.1z
					 M341.9,1353.1c16.7,0,33.6,0,50.3,0c4.3,0,8.3,3.9,8.3,8.3v24.8c0,4.3-3.9,8.3-8.3,8.3h-49.6c-4.3,0-8.3-3.9-8.3-8.3v-24.8
					C334.4,1357.3,337.8,1353.5,341.9,1353.1z M449.3,1353.1c16.7,0,33.6,0,50.3,0c4.3,0,8.3,3.9,8.3,8.3v24.8
					c0,4.3-3.9,8.3-8.3,8.3h-49.6c-4.3,0-8.3-3.9-8.3-8.3v-24.8C441.8,1357.3,445.2,1353.5,449.3,1353.1z M523.6,1353.1
					c16.7,0,33.6,0,50.3,0c4.3,0,8.3,3.9,8.3,8.3v24.8c0,4.3-3.9,8.3-8.3,8.3h-49.6c-4.3,0-8.3-3.9-8.3-8.3v-24.8
					C516.1,1357.3,519.6,1353.5,523.6,1353.1L523.6,1353.1z M341.9,1411c16.7,0,33.6,0,50.3,0c4.3,0,8.3,3.9,8.3,8.3v24.8
					c0,4.3-3.9,8.3-8.3,8.3h-49.6c-4.3,0-8.3-3.9-8.3-8.3v-24.8C334.4,1415.2,337.8,1411.4,341.9,1411z M449.3,1411
					c16.7,0,33.6,0,50.3,0c4.3,0,8.3,3.9,8.3,8.3v24.8c0,4.3-3.9,8.3-8.3,8.3h-49.6c-4.3,0-8.3-3.9-8.3-8.3v-24.8
					C441.8,1415.2,445.2,1411.4,449.3,1411z M523.6,1411c16.7,0,33.6,0,50.3,0c4.3,0,8.3,3.9,8.3,8.3v24.8c0,4.3-3.9,8.3-8.3,8.3
					h-49.6c-4.3,0-8.3-3.9-8.3-8.3v-24.8C516.1,1415.2,519.6,1411.4,523.6,1411L523.6,1411z M341.9,1468.9c16.7,0,33.6,0,50.3,0
					c4.3,0,8.3,3.9,8.3,8.3v24.8c0,4.3-3.9,8.3-8.3,8.3h-49.6c-4.3,0-8.3-3.9-8.3-8.3v-24.8C334.4,1473.1,337.8,1469.3,341.9,1468.9
					z M449.3,1468.9c16.7,0,33.6,0,50.3,0c4.3,0,8.3,3.9,8.3,8.3v24.8c0,4.3-3.9,8.3-8.3,8.3h-49.6c-4.3,0-8.3-3.9-8.3-8.3v-24.8
					C441.8,1473.1,445.2,1469.3,449.3,1468.9z M523.6,1468.9c16.7,0,33.6,0,50.3,0c4.3,0,8.3,3.9,8.3,8.3v24.8
					c0,4.3-3.9,8.3-8.3,8.3h-49.6c-4.3,0-8.3-3.9-8.3-8.3v-24.8C516.1,1473.1,519.6,1469.3,523.6,1468.9L523.6,1468.9z
					 M341.9,1526.8c16.7,0,33.6,0,50.3,0c4.3,0,8.3,3.9,8.3,8.3v24.8c0,4.3-3.9,8.3-8.3,8.3h-49.6c-4.3,0-8.3-3.9-8.3-8.3v-24.8
					C334.4,1531,337.8,1527.2,341.9,1526.8z M449.3,1526.8c16.7,0,33.6,0,50.3,0c4.3,0,8.3,3.9,8.3,8.3v24.8c0,4.3-3.9,8.3-8.3,8.3
					h-49.6c-4.3,0-8.3-3.9-8.3-8.3v-24.8C441.8,1531,445.2,1527.2,449.3,1526.8z M523.6,1526.8c19.5,0,39.1,0,58.6,0
					c4.3,0,8.3,3.9,8.3,8.3v91h-16.5v-82.7h-41.3v82.7h-16.5v-91C516.1,1531,519.6,1527.2,523.6,1526.8L523.6,1526.8z"/>
			</g>
		</g>
	</g>
	<g transform="translate(0,28.795730590820312)">
		<g transform="matrix(1,0,0,1,0,0)">
			<g transform="scale(1)">
				<g>
					<path d="M250.7,418.1L250.7,418.1c-1.6,0.4-3,0.4-4.4,0.1c-1.3-0.3-2.2-0.9-2.8-1.7l0,0c-0.7-1.7-0.5-3.5,0.4-5.4
						c0.9-1.9,2.1-3.5,3.4-4.8l0,0c6.3-5.9,15.4-11.5,27.2-16.6c11.8-5.1,25-9.6,39.5-13.3c14.5-3.8,29-6.6,43.4-8.5
						c14.4-1.9,27.3-2.6,38.6-2.1l0,0c4.1,0.1,9.4,0.6,15.9,1.5c6.5,0.9,12.9,2.3,19.4,4.3c6.4,2,11.6,4.9,15.5,8.6l0,0
						c5.5,5.7,5.9,12.4,1.1,20.2l0,0c-3.6,5.6-9.5,10.6-17.8,15c-8.2,4.5-17.8,8.5-28.8,12c-11,3.5-22.3,6.7-34.1,9.5
						c-11.8,2.8-23,5.3-33.8,7.6l0,0c-8.6,1.8-17.1,3.8-25.7,5.8c-8.5,2.1-14.3,3.9-17.4,5.4l0,0c4.1,4.7,10.4,9.4,19.1,14.2
						c8.6,4.7,18,9.5,28,14.1l0,0c10.3,4.8,20.1,9.8,29.2,14.9c9.1,5.1,16.2,10.3,21.1,15.7c5,5.4,6.5,11.1,4.5,17.1l0,0
						c-0.5,0.9-1.4,1.7-2.6,2.3c-1.3,0.6-2.6,0.9-4.1,0.9l0,0c-0.2,0-0.3,0-0.4,0l0,0c-1.6-0.1-2.8-0.5-3.6-1.1
						c-0.8-0.6-1.1-1.5-0.8-2.4l0,0c1.6-4.8,0.1-9.5-4.7-14.2c-4.8-4.7-11.4-9.3-19.9-14c-8.5-4.6-17.6-9.2-27.3-13.6l0,0
						c-11.3-5.3-21.5-10.5-30.7-15.8c-9.2-5.2-15.8-10.6-19.8-16.1l0,0c-0.4-0.6-0.5-1.3-0.2-2.1l0,0c1.5-3,6.4-5.8,14.9-8.4
						c8.5-2.5,21.2-5.5,37.9-9.1l0,0c10.1-2.2,20.6-4.5,31.6-7.1c11-2.6,21.6-5.5,31.8-8.7c10.2-3.2,19-6.7,26.6-10.6
						c7.5-3.8,12.8-8.1,15.9-12.8l0,0c3.6-5.8,3.4-10.8-0.5-14.9l0,0c-3.3-3.2-8.7-5.9-16.2-7.9c-7.5-2.1-16.6-3.4-27.1-3.9l0,0
						c-10.1-0.4-21.7,0.2-35,2c-13.2,1.8-26.6,4.4-40,7.8c-13.5,3.4-25.6,7.4-36.6,12c-10.9,4.6-19.1,9.4-24.5,14.6l0,0
						c-0.9,0.9-1.5,1.8-1.9,2.7c-0.4,0.9-0.6,1.6-0.6,1.9l0,0c0.5,0.9,0.3,1.8-0.4,2.6C253.5,417.1,252.3,417.7,250.7,418.1z
						 M239.5,498.2L239.5,498.2c-1.5-0.2-2.6-0.7-3.2-1.4c-0.6-0.7-0.6-1.6,0-2.5l0,0c9.6-14.3,20.5-29.4,32.6-45.1l0,0
						c7.1-9.3,14.6-19.4,22.7-30.2l0,0c0.6-0.9,1.6-1.6,3.1-2.1c1.5-0.5,3-0.6,4.4-0.4l0,0c1.6,0.3,2.6,0.8,3.2,1.6
						c0.5,0.8,0.5,1.6-0.2,2.6l0,0c-8,10.9-15.6,21-22.7,30.3l0,0c-12,15.6-22.8,30.5-32.4,44.7l0,0c-0.5,0.8-1.4,1.4-2.6,1.9
						c-1.2,0.5-2.5,0.7-3.8,0.7l0,0C240.2,498.3,239.8,498.3,239.5,498.2z M386.3,479.6L386.3,479.6c-0.5,0.2-1,0.4-1.4,0.5l0,0
						c-0.7,1.8-0.9,3.4-0.7,4.8l0,0c0.2,0.3,0.4,0.6,0.6,0.9c0.2,0.3,0.5,0.6,0.9,0.7l0,0c2.2,0.6,4.8,0.6,7.7,0.2
						c2.9-0.4,5.7-1,8.4-1.8l0,0c4.8-1.5,11.4-4.3,19.7-8.2c8.3-3.9,14.6-7.3,18.8-9.9l0,0c1.3-0.7,2.5-1,3.6-0.6
						c1.1,0.3,0.8,1.5-0.7,3.6c-1.5,2.1-4.7,4.7-9.6,7.9c-4.9,3.2-11.8,6.7-20.7,10.4c-8.9,3.7-17.3,5.7-25.1,5.9l0,0
						c-3.2,0-6-0.4-8.5-1.1l0,0c-1.3-0.3-2.6-0.9-3.9-1.8c-1.2-0.9-2-2.2-2.5-3.9l0,0c-0.7-3.6,0.5-7.8,3.5-12.5
						c3-4.7,6.8-8.8,11.2-12.3l0,0c6.5-5,13.5-9,21.1-12.1c7.6-3.1,14.3-4.5,20-4.4l0,0c0.7,0,1.9,0.1,3.4,0.4
						c1.5,0.3,2.8,0.9,3.8,1.9l0,0c1.2,1.4,0.9,3.1-0.9,5.2l0,0c-2.3,2.5-6.3,5.4-11.9,8.6c-5.7,3.3-11.9,6.5-18.6,9.8
						C397.7,474.7,391.7,477.4,386.3,479.6z M396.5,465.5L396.5,465.5c-1.5,1.1-2.9,2.4-4.3,3.8l0,0c14.3-6.6,24.5-12.2,30.6-16.6
						l0,0c-3.3,0.6-7.3,1.9-12.1,4.1C405.9,458.9,401.2,461.8,396.5,465.5z M466.9,489.1L466.9,489.1c-0.7-1.9-0.5-4.3,0.8-7.2l0,0
						c-2.2,1.5-4.2,2.7-5.9,3.8l0,0c-1.5,0.9-3.3,1.8-5.4,2.7c-2.2,0.9-4.5,1.2-6.9,0.8l0,0c-2.5-0.5-3.9-1.5-4.4-2.8
						c-0.5-1.4-0.6-2.6-0.4-3.7l0,0c0.2-3.8,2.6-8.7,7.2-14.7l0,0c-5.5,3.8-10.7,8.2-15.6,13.1l0,0c-1.7,1.9-3.4,3.8-4.9,5.7l0,0
						c-0.7,0.9-1.9,1.5-3.4,1.9c-1.5,0.4-3,0.5-4.4,0.2l0,0c-1.5-0.3-2.5-0.9-2.9-1.6c-0.5-0.8-0.4-1.6,0.4-2.5l0,0
						c1.7-2.2,3.6-4.3,5.6-6.4l0,0c3-3.2,6-6.4,9-9.4l0,0c5-5,9.7-10.1,14.1-15.3l0,0c0.8-0.9,1.9-1.6,3.4-2c1.5-0.4,3-0.5,4.4-0.2
						l0,0c1.8,0.4,2.8,1.1,3,2.2l0,0c3.8-2.1,7.2-3.8,10.2-5.1l0,0c1.2-0.5,2.4-0.8,3.8-0.9c1.3-0.1,2.5,0.1,3.6,0.6l0,0
						c0.9,0.5,1.4,1.2,1.5,1.9c0.1,0.7-0.2,1.5-1.1,2.2l0,0c-8,7.5-13.5,13.5-16.6,17.9c-3.1,4.4-4.8,7.6-5.2,9.5l0,0
						c7.4-4.9,16.2-11.3,26.4-19.1l0,0c6.5-4.9,12.3-9.3,17.6-13l0,0c1.1-0.8,2.4-1.2,3.9-1.4c1.5-0.2,2.9-0.1,4.1,0.4l0,0
						c1.2,0.5,1.9,1.2,2,2c0.1,0.8-0.3,1.7-1.3,2.5l0,0c-11.1,9.1-19,16.4-23.8,21.9c-4.8,5.5-7.2,9.5-7.3,11.8l0,0
						c4.2-1.2,10.1-3.6,17.8-7c7.7-3.5,14.7-7.1,21-11l0,0c1.2-0.8,2.4-1.1,3.7-1.1c1.3,0,1.3,1,0.2,2.7c-1.2,1.8-4.9,4.8-11.4,9.1
						c-6.4,4.3-13,7.7-19.6,10.3c-6.7,2.6-12,4-15.9,4.1l0,0c-0.2,0-0.4,0-0.5,0l0,0C470,492,467.8,491,466.9,489.1z M595.8,467.5
						L595.8,467.5c-0.5,1.3-5.1,4.6-13.8,10.1c-8.8,5.5-15.9,9.2-21.4,11.3c-5.5,2.1-9.9,3.2-13.4,3.3l0,0c-0.1,0-0.1,0-0.1,0l0,0
						c-4.5,0-7.5-1.1-9.2-3.2l0,0c-1.4-2-1.1-4.8,0.9-8.3l0,0c-4.2,2.1-8.3,3.7-12.4,4.9c-4.1,1.2-8.1,1.6-12.1,1.4l0,0
						c-3-0.3-5.3-0.8-6.8-1.7c-1.5-0.8-2.4-1.7-2.9-2.6l0,0c-1.1-2.4-0.6-5.3,1.4-8.7c2.1-3.4,5-7,8.9-10.8
						c3.8-3.8,7.9-7.3,12.2-10.7l0,0c1.1-0.8,2.3-1.4,3.9-1.6c1.5-0.2,3-0.1,4.3,0.3l0,0c1.3,0.5,2,1.1,2.1,2s-0.3,1.7-1.3,2.5l0,0
						c-7.9,6.5-13.4,11.8-16.6,15.9c-3.2,4.1-4.5,6.8-3.7,8l0,0c0,0.1,0.1,0.1,0.2,0.2c0.1,0.1,0.2,0.1,0.5,0.2
						c0.2,0.1,0.6,0.1,1,0.2l0,0c0.3,0,0.5,0.1,0.8,0.1l0,0c3.4-0.1,7.3-1.2,11.6-3.3c4.3-2.1,8.7-4.7,13.2-7.7
						c4.5-3.1,8.6-6.1,12.5-9.2c3.9-3.1,7-5.6,9.3-7.6l0,0c2.3-2,4.2-3.5,5.6-4.7l0,0c1.1-0.8,2.4-1.3,3.9-1.5
						c1.5-0.2,2.9-0.1,4.2,0.4l0,0c1.2,0.5,1.9,1.1,2.1,2c0.2,0.8-0.2,1.7-1.2,2.5l0,0c-10.9,9.2-19,16.8-24.3,22.9
						c-5.3,6.1-7.5,9.9-6.6,11.3l0,0c0,0,0,0,0.1,0l0,0c0.1,0,0.3,0,0.4,0l0,0l0,0l0,0l0,0l0,0c2-0.3,5.6-1.5,10.9-3.8
						c5.2-2.2,10.6-4.8,16.1-7.6c5.5-2.8,9.9-5.2,13.1-7.2l0,0c1.3-0.7,2.8-1.1,4.4-1.2C595.4,465.7,596.1,466.3,595.8,467.5z
						 M666.1,395.6L666.1,395.6c4.7,0.9,7.3,2.9,7.9,6.1l0,0c0.3,4.1-2.6,9.5-8.6,16.2c-6,6.7-13.6,13.8-22.7,21.3
						c-9.1,7.4-18.1,14.2-26.9,20.4c-8.8,6.2-15.9,10.8-21.3,13.8l0,0c-2.7,5.5-4.1,9.5-4.2,11.9c-0.1,2.4,0.1,3.8,0.8,4.1l0,0
						c2.6-0.2,7-1.6,13.2-4.1c6.2-2.5,12.9-5.5,19.9-8.9c7.1-3.4,13.1-6.6,18.1-9.6l0,0c0.9-0.5,2.1-0.8,3.6-0.9
						c1.5-0.1,2.3,0.5,2.3,1.6l0,0c-0.1,1.4-2.3,3.6-6.5,6.7c-4.3,3.1-9.7,6.2-16.3,9.5c-6.6,3.3-13.3,6.1-20,8.6
						c-6.8,2.4-12.5,3.7-17.1,3.9l0,0c-1.3,0-2.5-0.1-3.5-0.4l0,0c-4.1-1.3-6-4-6-8c0.1-4,1.5-8.8,4.3-14.3l0,0
						c-0.2-1.1,0.3-2,1.6-3l0,0c4.7-8.3,10.2-16.5,16.7-24.7c6.5-8.2,12-14.7,16.5-19.5l0,0c8-8.3,14.8-14.7,20.4-19.1
						c5.6-4.4,10.3-7.4,14.1-9.1c3.8-1.7,6.8-2.6,9-2.7C663.6,395.3,665.2,395.3,666.1,395.6z M603.2,458.8L603.2,458.8
						c8.7-5.9,17.6-12.6,26.8-20c9.2-7.4,16.9-14.3,23.2-20.8c6.3-6.5,9.4-11.4,9.2-14.6l0,0c-0.1-0.5-0.3-0.9-0.5-1
						c-0.2-0.2-0.5-0.2-0.7-0.2l0,0c-3,0.4-7.9,3.2-14.5,8.6c-6.6,5.4-13.9,12.4-21.7,20.8C617.1,440.1,609.9,449.1,603.2,458.8z
						 M722.3,467.5L722.3,467.5c-0.5,1.3-5.1,4.6-13.9,10.1c-8.8,5.5-15.9,9.2-21.3,11.3c-5.5,2.1-9.9,3.2-13.4,3.3l0,0
						c-0.1,0-0.1,0-0.1,0l0,0c-4.4,0-7.5-1.1-9.1-3.2l0,0c-1.4-2-1.1-4.8,0.9-8.3l0,0c-4.2,2.1-8.3,3.7-12.4,4.9
						c-4.1,1.2-8.1,1.6-12.1,1.4l0,0c-3-0.3-5.3-0.8-6.8-1.7c-1.5-0.8-2.4-1.7-2.9-2.6l0,0c-1.1-2.4-0.6-5.3,1.4-8.7
						c2.1-3.4,5-7,8.9-10.8c3.8-3.8,7.9-7.3,12.2-10.7l0,0c1.1-0.8,2.3-1.4,3.9-1.6c1.5-0.2,2.9-0.1,4.3,0.3l0,0
						c1.3,0.5,2,1.1,2.1,2c0.1,0.9-0.3,1.7-1.3,2.5l0,0c-7.9,6.5-13.4,11.8-16.6,15.9c-3.2,4.1-4.4,6.8-3.7,8l0,0
						c0,0.1,0.1,0.1,0.2,0.2c0.1,0.1,0.3,0.1,0.5,0.2c0.3,0.1,0.6,0.1,1,0.2l0,0c0.3,0,0.5,0.1,0.8,0.1l0,0
						c3.4-0.1,7.3-1.2,11.6-3.3c4.3-2.1,8.7-4.7,13.2-7.7c4.4-3.1,8.6-6.1,12.5-9.2c3.9-3.1,7-5.6,9.3-7.6l0,0
						c2.3-2,4.2-3.5,5.6-4.7l0,0c1.1-0.8,2.4-1.3,3.9-1.5c1.5-0.2,2.9-0.1,4.2,0.4l0,0c1.2,0.5,1.9,1.1,2.1,2s-0.2,1.7-1.2,2.5l0,0
						c-10.9,9.2-19,16.8-24.3,22.9c-5.3,6.1-7.5,9.9-6.6,11.3l0,0c0,0,0,0,0.1,0l0,0c0.1,0,0.3,0,0.4,0l0,0l0,0l0,0l0,0l0,0
						c2-0.3,5.7-1.5,10.9-3.8c5.2-2.2,10.6-4.8,16.1-7.6c5.5-2.8,9.9-5.2,13.2-7.2l0,0c1.3-0.7,2.8-1.1,4.4-1.2
						C721.9,465.7,722.6,466.3,722.3,467.5z M701,493.3L701,493.3c-0.5-1.5-0.2-2.8,1.1-4s2.8-2.3,4.6-3.2c1.8-0.9,3.2-1.5,4.4-2
						l0,0c4.1-1.7,7.7-3,10.8-3.9c3.1-0.9,5.9-1.6,8.5-2.2l0,0c-0.5-0.7-1.4-1.4-2.8-2.2c-1.4-0.8-2.9-1.5-4.6-2.3l0,0
						c-0.1,0-0.2-0.1-0.3-0.1l0,0c-1.3-0.5-2.5-1.1-3.7-1.7l0,0c-0.7-0.2-1.4-0.5-2-0.9l0,0c-0.2-0.2-0.5-0.4-0.8-0.6l0,0
						c-2-1.2-3.5-2.6-4.6-4.1c-1.1-1.6-1.3-3.5-0.6-5.7l0,0c1.5-3.1,5.2-6.3,11.1-9.5c6-3.2,11.6-5.3,16.9-6.2l0,0
						c5.6-0.7,9.3,0.2,11,2.8l0,0c1.7,2.4,0.2,5.4-4.6,9c-4.8,3.6-10.3,6.9-16.6,9.8l0,0c1.3,1,2,1.5,2,1.5l0,0c0,0,0,0,0.1,0.1l0,0
						c2.1,0.9,4.1,1.9,6.1,3c1.9,1.1,3.4,2.3,4.3,3.8l0,0c4-1.4,9.4-4.1,16.4-8.1l0,0c2.1-1.2,3.9-1.6,5.6-1.5
						c1.7,0.2,0.8,1.8-2.5,4.9c-3.4,3.1-7,5.6-10.8,7.5s-7.2,3.6-10.1,4.9l0,0c-3,3.4-7.3,6.3-12.9,8.7c-5.6,2.4-10.5,3.9-14.9,4.6
						l0,0c-1.5,0.2-2.9,0.3-4,0.3l0,0c-1.8,0-3.2-0.2-4.2-0.5c-1-0.4-1.7-0.7-2.1-1.2C701.4,493.9,701.2,493.6,701,493.3z
						 M722.4,462.1L722.4,462.1l0.1,0.5c4.8-2.2,8.7-4.4,11.7-6.4c3-2.1,4.7-3.6,5-4.6l0,0c-1.8,0.3-3.9,1-6.4,2.2
						c-2.5,1.2-4.8,2.4-6.9,3.7c-2.1,1.3-3.3,2.4-3.6,3.2l0,0C722,461.8,722,462.3,722.4,462.1z"/>
				</g>
			</g>
		</g>
		<g transform="matrix(1,0,0,1,38.54960250854492,63.628318786621094)">
			<g transform="scale(1, 1)">
				<g transform="scale(1)">
					<path d="M310.7,489.6v23.1h2.9v-10.9h10.8v10.9h2.9v-23.1h-2.9v9.7h-10.8v-9.7H310.7z M342.2,513.1c1.4,0,2.8-0.3,4-0.8
						c1.2-0.6,2.3-1.4,3.1-2.4c0.9-1,1.6-2.3,2-3.8c0.5-1.5,0.7-3.2,0.7-5s-0.2-3.5-0.7-5c-0.5-1.5-1.1-2.7-2-3.7
						c-0.9-1-1.9-1.8-3.1-2.4c-1.2-0.6-2.6-0.9-4-0.9c-1.5,0-2.8,0.3-4,0.8c-1.2,0.5-2.3,1.3-3.1,2.4c-0.9,1-1.5,2.3-2,3.7
						c-0.5,1.5-0.7,3.1-0.7,5s0.2,3.5,0.7,5c0.5,1.5,1.2,2.8,2,3.8c0.9,1.1,1.9,1.9,3.1,2.4C339.4,512.9,340.7,513.1,342.2,513.1z
						 M342.2,510.6c-1,0-2-0.2-2.8-0.7c-0.8-0.4-1.5-1.1-2.1-1.9c-0.6-0.9-1.1-1.9-1.4-3c-0.3-1.2-0.5-2.5-0.5-3.9
						c0-1.4,0.2-2.7,0.5-3.9s0.8-2.1,1.4-2.9c0.6-0.8,1.3-1.4,2.1-1.9c0.9-0.4,1.8-0.6,2.8-0.6s2,0.2,2.8,0.6
						c0.9,0.4,1.6,1.1,2.1,1.9c0.6,0.8,1.1,1.8,1.4,2.9c0.3,1.1,0.5,2.4,0.5,3.9c0,1.4-0.2,2.8-0.5,3.9c-0.3,1.1-0.8,2.1-1.4,3
						c-0.6,0.8-1.3,1.5-2.1,1.9C344.2,510.3,343.2,510.6,342.2,510.6z M361.2,492.1v20.7h3v-20.7h7v-2.5h-16.9v2.5H361.2z
						 M375.3,489.6v23.1H389v-2.5h-10.8v-8.4h8.8v-2.5h-8.8v-7.3h10.4v-2.5H375.3z M393.9,489.6v23.1H407v-2.5h-10.1v-20.6H393.9z
						 M419,506.6c0-0.9,0.3-1.7,0.8-2.4c0.6-0.7,1.2-1.4,2.1-2.1c0.8,1.2,1.8,2.4,2.8,3.6c1,1.2,2.1,2.3,3.3,3.3
						c-0.7,0.6-1.4,1-2.1,1.4c-0.7,0.4-1.5,0.5-2.3,0.5c-0.6,0-1.2-0.1-1.8-0.3s-1-0.5-1.4-0.9c-0.4-0.4-0.7-0.9-1-1.4
						S419,507.2,419,506.6z M421.7,494.6c0-1,0.3-1.8,0.8-2.4c0.5-0.6,1.2-1,2.1-1c0.8,0,1.4,0.3,1.7,0.8c0.4,0.5,0.5,1.1,0.5,1.8
						c0,0.5-0.1,1-0.3,1.4c-0.2,0.4-0.5,0.9-0.9,1.2c-0.4,0.4-0.8,0.8-1.3,1.1c-0.5,0.4-1,0.7-1.5,1.1c-0.3-0.7-0.6-1.4-0.8-2.1
						C421.8,495.9,421.7,495.2,421.7,494.6z M435.2,513.1l0.8-2.4c-0.6-0.2-1.3-0.5-2-0.9c-0.7-0.4-1.5-0.8-2.3-1.4
						c0.9-1.2,1.7-2.5,2.4-3.9s1.2-2.9,1.7-4.4H433c-0.4,1.4-0.8,2.6-1.4,3.7c-0.6,1.1-1.2,2.2-1.9,3.1c-1.1-0.9-2.2-1.9-3.2-3
						c-1-1.1-1.9-2.3-2.6-3.5c0.6-0.5,1.3-0.9,1.9-1.4c0.6-0.5,1.2-1,1.7-1.6c0.5-0.6,0.9-1.1,1.2-1.8c0.3-0.6,0.4-1.3,0.4-2.1
						c0-1.4-0.4-2.5-1.2-3.3c-0.8-0.9-1.9-1.3-3.4-1.3c-0.8,0-1.5,0.1-2.2,0.4c-0.6,0.3-1.2,0.7-1.7,1.1c-0.5,0.5-0.8,1.1-1.1,1.7
						c-0.3,0.7-0.4,1.4-0.4,2.1c0,0.9,0.1,1.7,0.4,2.6s0.6,1.8,1.1,2.8c-0.6,0.4-1.2,0.8-1.7,1.3c-0.5,0.5-1,1-1.4,1.5
						c-0.4,0.5-0.8,1.1-1,1.8c-0.2,0.6-0.4,1.4-0.4,2.1c0,0.9,0.2,1.8,0.5,2.6c0.4,0.8,0.8,1.5,1.4,2c0.6,0.6,1.4,1,2.2,1.3
						s1.8,0.5,2.9,0.5c1.4,0,2.6-0.2,3.7-0.7c1.1-0.5,2.1-1.1,3-1.9c0.9,0.7,1.9,1.2,2.7,1.6C433.5,512.6,434.4,512.9,435.2,513.1z
						 M451.6,492.1v20.7h3v-20.7h7v-2.5h-16.9v2.5H451.6z M468.7,500.6v-8.6h3.9c1.8,0,3.2,0.3,4.2,0.9c1,0.6,1.4,1.7,1.4,3.2
						c0,1.5-0.5,2.6-1.4,3.4s-2.4,1.1-4.2,1.1H468.7z M478.5,512.7h3.3l-5.9-10.1c1.6-0.4,2.9-1.1,3.8-2.2c0.9-1.1,1.4-2.5,1.4-4.3
						c0-1.2-0.2-2.2-0.6-3.1c-0.4-0.8-0.9-1.5-1.7-2c-0.7-0.5-1.6-0.9-2.6-1.1c-1-0.2-2.1-0.3-3.3-0.3h-7.2v23.1h2.9V503h4.2
						L478.5,512.7z M495.7,503.3h-7l1.1-3.5c0.4-1.3,0.8-2.6,1.2-3.9c0.4-1.3,0.8-2.6,1.1-3.9h0.1c0.4,1.4,0.8,2.7,1.1,3.9
						c0.4,1.3,0.8,2.6,1.2,3.9L495.7,503.3z M496.5,505.7l2.2,7.1h3.1l-7.8-23.1h-3.3l-7.8,23.1h3l2.2-7.1H496.5z M505.1,489.6v23.1
						h2.8v-12.1c0-1.2-0.1-2.4-0.1-3.6c-0.1-1.2-0.1-2.4-0.3-3.6h0.1l2.5,4.8l8.4,14.6h3v-23.1h-2.8v12c0,1.2,0.1,2.4,0.1,3.7
						c0.1,1.3,0.1,2.5,0.2,3.6H519l-2.5-4.8l-8.4-14.5H505.1z M528,507.7l-1.8,2.1c1,1.1,2.2,1.9,3.6,2.5c1.4,0.6,2.9,0.9,4.5,0.9
						c1.2,0,2.3-0.1,3.3-0.5c1-0.4,1.8-0.8,2.5-1.4c0.7-0.6,1.2-1.3,1.6-2.1c0.4-0.8,0.5-1.7,0.5-2.6c0-0.9-0.1-1.6-0.4-2.2
						c-0.3-0.6-0.6-1.2-1-1.7c-0.4-0.5-0.9-0.9-1.5-1.3c-0.6-0.4-1.2-0.7-1.9-1l-3.3-1.4c-0.5-0.2-0.9-0.4-1.4-0.6
						c-0.4-0.2-0.9-0.5-1.2-0.8c-0.4-0.3-0.7-0.6-0.9-1c-0.2-0.4-0.3-0.9-0.3-1.4c0-1.1,0.4-1.9,1.2-2.5c0.8-0.6,1.8-0.9,3.1-0.9
						c1.1,0,2.1,0.2,2.9,0.6c0.9,0.4,1.6,0.9,2.4,1.6l1.6-1.9c-0.8-0.9-1.8-1.6-3-2.1c-1.2-0.5-2.5-0.8-3.9-0.8
						c-1.1,0-2,0.2-2.9,0.5c-0.9,0.3-1.6,0.7-2.3,1.3c-0.6,0.6-1.1,1.2-1.5,1.9c-0.4,0.8-0.6,1.6-0.6,2.4s0.1,1.6,0.4,2.2
						c0.3,0.6,0.6,1.2,1.1,1.7c0.4,0.5,0.9,0.9,1.5,1.2c0.6,0.3,1.1,0.6,1.7,0.9l3.3,1.4c0.6,0.3,1.1,0.5,1.5,0.7
						c0.5,0.2,0.9,0.5,1.2,0.8c0.4,0.3,0.6,0.6,0.8,1.1c0.2,0.4,0.3,0.9,0.3,1.5c0,1.1-0.4,2.1-1.3,2.7c-0.9,0.7-2,1.1-3.6,1.1
						c-1.2,0-2.4-0.3-3.5-0.8C529.8,509.3,528.8,508.6,528,507.7z M546.8,489.6v23.1h2.9v-23.1H546.8z M556.1,489.6v23.1h13.7v-2.5
						H559v-8.4h8.8v-2.5H559v-7.3h10.4v-2.5H556.1z M574.7,489.6v23.1h2.8v-12.1c0-1.2-0.1-2.4-0.1-3.6c-0.1-1.2-0.2-2.4-0.3-3.6
						h0.1l2.5,4.8l8.4,14.6h3v-23.1h-2.8v12c0,1.2,0,2.4,0.1,3.7s0.1,2.5,0.2,3.6h-0.1l-2.5-4.8l-8.4-14.5H574.7z M602.3,492.1v20.7
						h2.9v-20.7h7v-2.5h-16.9v2.5H602.3z"/>
				</g>
			</g>
		</g>
	</g>
</g>
</svg>
