<?xml version="1.0" encoding="utf-8"?>
<!-- Generator: Adobe Illustrator 26.3.0, SVG Export Plug-In . SVG Version: 6.00 Build 0)  -->
<svg version="1.1"
	 id="Layer_1" xmlns:cc="http://creativecommons.org/ns#" xmlns:sodipodi="http://sodipodi.sourceforge.net/DTD/sodipodi-0.dtd" xmlns:rdf="http://www.w3.org/1999/02/22-rdf-syntax-ns#" xmlns:svg="http://www.w3.org/2000/svg" xmlns:dc="http://purl.org/dc/elements/1.1/" xmlns:inkscape="http://www.inkscape.org/namespaces/inkscape"
	 xmlns="http://www.w3.org/2000/svg" xmlns:xlink="http://www.w3.org/1999/xlink" x="0px" y="0px" viewBox="0 0 528.3 380.5"
	 style="enable-background:new 0 0 528.3 380.5;" xml:space="preserve">
<style type="text/css">
	.st0{fill:#50BBB5;}
</style>
<g>
	<g transform="matrix(1,0,0,1,33.569602966308594,0)">
		<g>
			<g transform="translate(0,-952.36218)">
				<path class="st0" d="M189.4,952.4v364h-8.3V985.5c-37.2,0-61.9,49.6-99.1,49.6v281.2c-3,0-6.1,0-9,0c-4.3,0.2-8.1,4.3-7.9,8.7
					s4.3,8.1,8.6,7.9h313.8c4.4,0.1,8.4-3.9,8.4-8.3s-4-8.3-8.4-8.3h-16.4v-297.8C316.1,1018.6,244.4,952.4,189.4,952.4z
					 M106,1043.4c16.7,0,33.6,0,50.3,0c4.3,0,8.3,3.9,8.3,8.3v24.8c0,4.3-3.9,8.3-8.3,8.3h-49.6c-4.3,0-8.3-3.9-8.3-8.3v-24.8
					C98.5,1047.6,101.9,1043.8,106,1043.4z M213.4,1043.4c16.7,0,33.6,0,50.3,0c4.3,0,8.3,3.9,8.3,8.3v24.8c0,4.3-3.9,8.3-8.3,8.3
					h-49.6c-4.3,0-8.3-3.9-8.3-8.3v-24.8C205.9,1047.6,209.4,1043.8,213.4,1043.4z M287.7,1043.4c16.7,0,33.6,0,50.3,0
					c4.3,0,8.3,3.9,8.3,8.3v24.8c0,4.3-3.9,8.3-8.3,8.3h-49.6c-4.3,0-8.3-3.9-8.3-8.3v-24.8C280.2,1047.6,283.7,1043.8,287.7,1043.4
					L287.7,1043.4z M106,1101.3c16.7,0,33.6,0,50.3,0c4.3,0,8.3,3.9,8.3,8.3v24.8c0,4.3-3.9,8.3-8.3,8.3h-49.6
					c-4.3,0-8.3-3.9-8.3-8.3v-24.8C98.5,1105.5,101.9,1101.7,106,1101.3z M213.4,1101.3c16.7,0,33.6,0,50.3,0c4.3,0,8.3,3.9,8.3,8.3
					v24.8c0,4.3-3.9,8.3-8.3,8.3h-49.6c-4.3,0-8.3-3.9-8.3-8.3v-24.8C205.9,1105.5,209.4,1101.7,213.4,1101.3z M287.7,1101.3
					c16.7,0,33.6,0,50.3,0c4.3,0,8.3,3.9,8.3,8.3v24.8c0,4.3-3.9,8.3-8.3,8.3h-49.6c-4.3,0-8.3-3.9-8.3-8.3v-24.8
					C280.2,1105.5,283.7,1101.7,287.7,1101.3L287.7,1101.3z M106,1159.2c16.7,0,33.6,0,50.3,0c4.3,0,8.3,3.9,8.3,8.3v24.8
					c0,4.3-3.9,8.3-8.3,8.3h-49.6c-4.3,0-8.3-3.9-8.3-8.3v-24.8C98.5,1163.4,101.9,1159.6,106,1159.2z M213.4,1159.2
					c16.7,0,33.6,0,50.3,0c4.3,0,8.3,3.9,8.3,8.3v24.8c0,4.3-3.9,8.3-8.3,8.3h-49.6c-4.3,0-8.3-3.9-8.3-8.3v-24.8
					C205.9,1163.4,209.4,1159.6,213.4,1159.2z M287.7,1159.2c16.7,0,33.6,0,50.3,0c4.3,0,8.3,3.9,8.3,8.3v24.8
					c0,4.3-3.9,8.3-8.3,8.3h-49.6c-4.3,0-8.3-3.9-8.3-8.3v-24.8C280.2,1163.4,283.7,1159.6,287.7,1159.2L287.7,1159.2z M106,1217.1
					c16.7,0,33.6,0,50.3,0c4.3,0,8.3,3.9,8.3,8.3v24.8c0,4.3-3.9,8.3-8.3,8.3h-49.6c-4.3,0-8.3-3.9-8.3-8.3v-24.8
					C98.5,1221.3,101.9,1217.5,106,1217.1z M213.4,1217.1c16.7,0,33.6,0,50.3,0c4.3,0,8.3,3.9,8.3,8.3v24.8c0,4.3-3.9,8.3-8.3,8.3
					h-49.6c-4.3,0-8.3-3.9-8.3-8.3v-24.8C205.9,1221.3,209.4,1217.5,213.4,1217.1z M287.7,1217.1c19.5,0,39.1,0,58.6,0
					c4.3,0,8.3,3.9,8.3,8.3v91h-16.5v-82.7h-41.3v82.7h-16.5v-91C280.2,1221.3,283.7,1217.5,287.7,1217.1L287.7,1217.1z"/>
			</g>
		</g>
	</g>
	<g transform="translate(0,28.795730590820312)">
		<g transform="matrix(1,0,0,1,0,0)">
			<g transform="scale(1)">
				<g>
					<path d="M14.8,108.4L14.8,108.4c-1.6,0.4-3,0.4-4.4,0.1c-1.3-0.3-2.2-0.9-2.8-1.7l0,0c-0.7-1.7-0.5-3.5,0.4-5.4
						s2.1-3.5,3.4-4.8l0,0c6.3-5.9,15.4-11.5,27.2-16.6c11.8-5.1,25-9.6,39.5-13.3c14.5-3.8,29-6.6,43.4-8.5s27.3-2.6,38.6-2.1l0,0
						c4.1,0.1,9.4,0.6,15.9,1.5s12.9,2.3,19.4,4.3c6.4,2,11.6,4.9,15.5,8.6l0,0c5.5,5.7,5.9,12.4,1.1,20.2l0,0
						c-3.6,5.6-9.5,10.6-17.8,15c-8.2,4.5-17.8,8.5-28.8,12s-22.3,6.7-34.1,9.5c-11.8,2.8-23,5.3-33.8,7.6l0,0
						c-8.6,1.8-17.1,3.8-25.7,5.8c-8.5,2.1-14.3,3.9-17.4,5.4l0,0c4.1,4.7,10.4,9.4,19.1,14.2c8.6,4.7,18,9.5,28,14.1l0,0
						c10.3,4.8,20.1,9.8,29.2,14.9s16.2,10.3,21.1,15.7c5,5.4,6.5,11.1,4.5,17.1l0,0c-0.5,0.9-1.4,1.7-2.6,2.3
						c-1.3,0.6-2.6,0.9-4.1,0.9l0,0c-0.2,0-0.3,0-0.4,0l0,0c-1.6-0.1-2.8-0.5-3.6-1.1c-0.8-0.6-1.1-1.5-0.8-2.4l0,0
						c1.6-4.8,0.1-9.5-4.7-14.2c-4.8-4.7-11.4-9.3-19.9-14c-8.5-4.6-17.6-9.2-27.3-13.6l0,0c-11.3-5.3-21.5-10.5-30.7-15.8
						c-9.2-5.2-15.8-10.6-19.8-16.1l0,0c-0.4-0.6-0.5-1.3-0.2-2.1l0,0c1.5-3,6.4-5.8,14.9-8.4c8.5-2.5,21.2-5.5,37.9-9.1l0,0
						c10.1-2.2,20.6-4.5,31.6-7.1s21.6-5.5,31.8-8.7c10.2-3.2,19-6.7,26.6-10.6c7.5-3.8,12.8-8.1,15.9-12.8l0,0
						c3.6-5.8,3.4-10.8-0.5-14.9l0,0c-3.3-3.2-8.7-5.9-16.2-7.9c-7.5-2.1-16.6-3.4-27.1-3.9l0,0c-10.1-0.4-21.7,0.2-35,2
						c-13.2,1.8-26.6,4.4-40,7.8c-13.5,3.4-25.6,7.4-36.6,12C34.6,88.9,26.4,93.7,21,98.9l0,0c-0.9,0.9-1.5,1.8-1.9,2.7
						c-0.4,0.9-0.6,1.6-0.6,1.9l0,0c0.5,0.9,0.3,1.8-0.4,2.6C17.6,107.4,16.4,108,14.8,108.4z M3.6,188.5L3.6,188.5
						c-1.5-0.2-2.6-0.7-3.2-1.4c-0.6-0.7-0.6-1.6,0-2.5l0,0c9.6-14.3,20.5-29.4,32.6-45.1l0,0c7.1-9.3,14.6-19.4,22.7-30.2l0,0
						c0.6-0.9,1.6-1.6,3.1-2.1s3-0.6,4.4-0.4l0,0c1.6,0.3,2.6,0.8,3.2,1.6c0.5,0.8,0.5,1.6-0.2,2.6l0,0c-8,10.9-15.6,21-22.7,30.3
						l0,0c-12,15.6-22.8,30.5-32.4,44.7l0,0c-0.5,0.8-1.4,1.4-2.6,1.9c-1.2,0.5-2.5,0.7-3.8,0.7l0,0C4.3,188.6,3.9,188.6,3.6,188.5z
						 M150.4,169.9L150.4,169.9c-0.5,0.2-1,0.4-1.4,0.5l0,0c-0.7,1.8-0.9,3.4-0.7,4.8l0,0c0.2,0.3,0.4,0.6,0.6,0.9s0.5,0.6,0.9,0.7
						l0,0c2.2,0.6,4.8,0.6,7.7,0.2c2.9-0.4,5.7-1,8.4-1.8l0,0c4.8-1.5,11.4-4.3,19.7-8.2c8.3-3.9,14.6-7.3,18.8-9.9l0,0
						c1.3-0.7,2.5-1,3.6-0.6c1.1,0.3,0.8,1.5-0.7,3.6s-4.7,4.7-9.6,7.9c-4.9,3.2-11.8,6.7-20.7,10.4c-8.9,3.7-17.3,5.7-25.1,5.9l0,0
						c-3.2,0-6-0.4-8.5-1.1l0,0c-1.3-0.3-2.6-0.9-3.9-1.8c-1.2-0.9-2-2.2-2.5-3.9l0,0c-0.7-3.6,0.5-7.8,3.5-12.5s6.8-8.8,11.2-12.3
						l0,0c6.5-5,13.5-9,21.1-12.1s14.3-4.5,20-4.4l0,0c0.7,0,1.9,0.1,3.4,0.4s2.8,0.9,3.8,1.9l0,0c1.2,1.4,0.9,3.1-0.9,5.2l0,0
						c-2.3,2.5-6.3,5.4-11.9,8.6c-5.7,3.3-11.9,6.5-18.6,9.8C161.9,165,155.9,167.7,150.4,169.9z M160.6,155.8L160.6,155.8
						c-1.5,1.1-2.9,2.4-4.3,3.8l0,0c14.3-6.6,24.5-12.2,30.6-16.6l0,0c-3.3,0.6-7.3,1.9-12.1,4.1C170,149.2,165.4,152.1,160.6,155.8
						z M231,179.4L231,179.4c-0.7-1.9-0.5-4.3,0.8-7.2l0,0c-2.2,1.5-4.2,2.7-5.9,3.8l0,0c-1.5,0.9-3.3,1.8-5.4,2.7
						c-2.2,0.9-4.5,1.2-6.9,0.8l0,0c-2.5-0.5-3.9-1.5-4.4-2.8c-0.5-1.4-0.6-2.6-0.4-3.7l0,0c0.2-3.8,2.6-8.7,7.2-14.7l0,0
						c-5.5,3.8-10.7,8.2-15.6,13.1l0,0c-1.7,1.9-3.4,3.8-4.9,5.7l0,0c-0.7,0.9-1.9,1.5-3.4,1.9s-3,0.5-4.4,0.2l0,0
						c-1.5-0.3-2.5-0.9-2.9-1.6c-0.5-0.8-0.4-1.6,0.4-2.5l0,0c1.7-2.2,3.6-4.3,5.6-6.4l0,0c3-3.2,6-6.4,9-9.4l0,0
						c5-5,9.7-10.1,14.1-15.3l0,0c0.8-0.9,1.9-1.6,3.4-2s3-0.5,4.4-0.2l0,0c1.8,0.4,2.8,1.1,3,2.2l0,0c3.8-2.1,7.2-3.8,10.2-5.1l0,0
						c1.2-0.5,2.4-0.8,3.8-0.9c1.3-0.1,2.5,0.1,3.6,0.6l0,0c0.9,0.5,1.4,1.2,1.5,1.9c0.1,0.7-0.2,1.5-1.1,2.2l0,0
						c-8,7.5-13.5,13.5-16.6,17.9s-4.8,7.6-5.2,9.5l0,0c7.4-4.9,16.2-11.3,26.4-19.1l0,0c6.5-4.9,12.3-9.3,17.6-13l0,0
						c1.1-0.8,2.4-1.2,3.9-1.4c1.5-0.2,2.9-0.1,4.1,0.4l0,0c1.2,0.5,1.9,1.2,2,2s-0.3,1.7-1.3,2.5l0,0c-11.1,9.1-19,16.4-23.8,21.9
						s-7.2,9.5-7.3,11.8l0,0c4.2-1.2,10.1-3.6,17.8-7c7.7-3.5,14.7-7.1,21-11l0,0c1.2-0.8,2.4-1.1,3.7-1.1s1.3,1,0.2,2.7
						c-1.2,1.8-4.9,4.8-11.4,9.1c-6.4,4.3-13,7.7-19.6,10.3c-6.7,2.6-12,4-15.9,4.1l0,0c-0.2,0-0.4,0-0.5,0l0,0
						C234.1,182.3,231.9,181.3,231,179.4z M359.9,157.8L359.9,157.8c-0.5,1.3-5.1,4.6-13.8,10.1c-8.8,5.5-15.9,9.2-21.4,11.3
						c-5.5,2.1-9.9,3.2-13.4,3.3l0,0c-0.1,0-0.1,0-0.1,0l0,0c-4.5,0-7.5-1.1-9.2-3.2l0,0c-1.4-2-1.1-4.8,0.9-8.3l0,0
						c-4.2,2.1-8.3,3.7-12.4,4.9c-4.1,1.2-8.1,1.6-12.1,1.4l0,0c-3-0.3-5.3-0.8-6.8-1.7c-1.5-0.8-2.4-1.7-2.9-2.6l0,0
						c-1.1-2.4-0.6-5.3,1.4-8.7c2.1-3.4,5-7,8.9-10.8c3.8-3.8,7.9-7.3,12.2-10.7l0,0c1.1-0.8,2.3-1.4,3.9-1.6c1.5-0.2,3-0.1,4.3,0.3
						l0,0c1.3,0.5,2,1.1,2.1,2s-0.3,1.7-1.3,2.5l0,0c-7.9,6.5-13.4,11.8-16.6,15.9c-3.2,4.1-4.5,6.8-3.7,8l0,0
						c0,0.1,0.1,0.1,0.2,0.2c0.1,0.1,0.2,0.1,0.5,0.2c0.2,0.1,0.6,0.1,1,0.2l0,0c0.3,0,0.5,0.1,0.8,0.1l0,0
						c3.4-0.1,7.3-1.2,11.6-3.3c4.3-2.1,8.7-4.7,13.2-7.7c4.5-3.1,8.6-6.1,12.5-9.2s7-5.6,9.3-7.6l0,0c2.3-2,4.2-3.5,5.6-4.7l0,0
						c1.1-0.8,2.4-1.3,3.9-1.5s2.9-0.1,4.2,0.4l0,0c1.2,0.5,1.9,1.1,2.1,2c0.2,0.8-0.2,1.7-1.2,2.5l0,0c-10.9,9.2-19,16.8-24.3,22.9
						s-7.5,9.9-6.6,11.3l0,0c0,0,0,0,0.1,0l0,0c0.1,0,0.3,0,0.4,0l0,0l0,0l0,0l0,0l0,0c2-0.3,5.6-1.5,10.9-3.8
						c5.2-2.2,10.6-4.8,16.1-7.6c5.5-2.8,9.9-5.2,13.1-7.2l0,0c1.3-0.7,2.8-1.1,4.4-1.2C359.6,156,360.2,156.6,359.9,157.8z
						 M430.2,85.9L430.2,85.9c4.7,0.9,7.3,2.9,7.9,6.1l0,0c0.3,4.1-2.6,9.5-8.6,16.2S416,122,406.9,129.5
						c-9.1,7.4-18.1,14.2-26.9,20.4c-8.8,6.2-15.9,10.8-21.3,13.8l0,0c-2.7,5.5-4.1,9.5-4.2,11.9c-0.1,2.4,0.1,3.8,0.8,4.1l0,0
						c2.6-0.2,7-1.6,13.2-4.1s12.9-5.5,19.9-8.9c7.1-3.4,13.1-6.6,18.1-9.6l0,0c0.9-0.5,2.1-0.8,3.6-0.9s2.3,0.5,2.3,1.6l0,0
						c-0.1,1.4-2.3,3.6-6.5,6.7c-4.3,3.1-9.7,6.2-16.3,9.5s-13.3,6.1-20,8.6c-6.8,2.4-12.5,3.7-17.1,3.9l0,0c-1.3,0-2.5-0.1-3.5-0.4
						l0,0c-4.1-1.3-6-4-6-8c0.1-4,1.5-8.8,4.3-14.3l0,0c-0.2-1.1,0.3-2,1.6-3l0,0c4.7-8.3,10.2-16.5,16.7-24.7s12-14.7,16.5-19.5
						l0,0c8-8.3,14.8-14.7,20.4-19.1c5.6-4.4,10.3-7.4,14.1-9.1s6.8-2.6,9-2.7S429.4,85.6,430.2,85.9z M367.4,149.1L367.4,149.1
						c8.7-5.9,17.6-12.6,26.8-20s16.9-14.3,23.2-20.8s9.4-11.4,9.2-14.6l0,0c-0.1-0.5-0.3-0.9-0.5-1c-0.2-0.2-0.5-0.2-0.7-0.2l0,0
						c-3,0.4-7.9,3.2-14.5,8.6s-13.9,12.4-21.7,20.8C381.2,130.4,374.1,139.4,367.4,149.1z M486.4,157.8L486.4,157.8
						c-0.5,1.3-5.1,4.6-13.9,10.1c-8.8,5.5-15.9,9.2-21.3,11.3c-5.5,2.1-9.9,3.2-13.4,3.3l0,0c-0.1,0-0.1,0-0.1,0l0,0
						c-4.4,0-7.5-1.1-9.1-3.2l0,0c-1.4-2-1.1-4.8,0.9-8.3l0,0c-4.2,2.1-8.3,3.7-12.4,4.9c-4.1,1.2-8.1,1.6-12.1,1.4l0,0
						c-3-0.3-5.3-0.8-6.8-1.7c-1.5-0.8-2.4-1.7-2.9-2.6l0,0c-1.1-2.4-0.6-5.3,1.4-8.7c2.1-3.4,5-7,8.9-10.8
						c3.8-3.8,7.9-7.3,12.2-10.7l0,0c1.1-0.8,2.3-1.4,3.9-1.6c1.5-0.2,2.9-0.1,4.3,0.3l0,0c1.3,0.5,2,1.1,2.1,2s-0.3,1.7-1.3,2.5
						l0,0c-7.9,6.5-13.4,11.8-16.6,15.9c-3.2,4.1-4.4,6.8-3.7,8l0,0c0,0.1,0.1,0.1,0.2,0.2c0.1,0.1,0.3,0.1,0.5,0.2
						c0.3,0.1,0.6,0.1,1,0.2l0,0c0.3,0,0.5,0.1,0.8,0.1l0,0c3.4-0.1,7.3-1.2,11.6-3.3c4.3-2.1,8.7-4.7,13.2-7.7
						c4.4-3.1,8.6-6.1,12.5-9.2s7-5.6,9.3-7.6l0,0c2.3-2,4.2-3.5,5.6-4.7l0,0c1.1-0.8,2.4-1.3,3.9-1.5s2.9-0.1,4.2,0.4l0,0
						c1.2,0.5,1.9,1.1,2.1,2s-0.2,1.7-1.2,2.5l0,0c-10.9,9.2-19,16.8-24.3,22.9s-7.5,9.9-6.6,11.3l0,0c0,0,0,0,0.1,0l0,0
						c0.1,0,0.3,0,0.4,0l0,0l0,0l0,0l0,0l0,0c2-0.3,5.7-1.5,10.9-3.8c5.2-2.2,10.6-4.8,16.1-7.6c5.5-2.8,9.9-5.2,13.2-7.2l0,0
						c1.3-0.7,2.8-1.1,4.4-1.2C486.1,156,486.7,156.6,486.4,157.8z M465.1,183.6L465.1,183.6c-0.5-1.5-0.2-2.8,1.1-4
						s2.8-2.3,4.6-3.2c1.8-0.9,3.2-1.5,4.4-2l0,0c4.1-1.7,7.7-3,10.8-3.9s5.9-1.6,8.5-2.2l0,0c-0.5-0.7-1.4-1.4-2.8-2.2
						c-1.4-0.8-2.9-1.5-4.6-2.3l0,0c-0.1,0-0.2-0.1-0.3-0.1l0,0c-1.3-0.5-2.5-1.1-3.7-1.7l0,0c-0.7-0.2-1.4-0.5-2-0.9l0,0
						c-0.2-0.2-0.5-0.4-0.8-0.6l0,0c-2-1.2-3.5-2.6-4.6-4.1c-1.1-1.6-1.3-3.5-0.6-5.7l0,0c1.5-3.1,5.2-6.3,11.1-9.5
						c6-3.2,11.6-5.3,16.9-6.2l0,0c5.6-0.7,9.3,0.2,11,2.8l0,0c1.7,2.4,0.2,5.4-4.6,9c-4.8,3.6-10.3,6.9-16.6,9.8l0,0
						c1.3,1,2,1.5,2,1.5l0,0c0,0,0,0,0.1,0.1l0,0c2.1,0.9,4.1,1.9,6.1,3c1.9,1.1,3.4,2.3,4.3,3.8l0,0c4-1.4,9.4-4.1,16.4-8.1l0,0
						c2.1-1.2,3.9-1.6,5.6-1.5c1.7,0.2,0.8,1.8-2.5,4.9c-3.4,3.1-7,5.6-10.8,7.5c-3.8,1.9-7.2,3.6-10.1,4.9l0,0
						c-3,3.4-7.3,6.3-12.9,8.7c-5.6,2.4-10.5,3.9-14.9,4.6l0,0c-1.5,0.2-2.9,0.3-4,0.3l0,0c-1.8,0-3.2-0.2-4.2-0.5
						c-1-0.4-1.7-0.7-2.1-1.2C465.6,184.2,465.4,183.9,465.1,183.6z M486.6,152.4L486.6,152.4l0.1,0.5c4.8-2.2,8.7-4.4,11.7-6.4
						c3-2.1,4.7-3.6,5-4.6l0,0c-1.8,0.3-3.9,1-6.4,2.2s-4.8,2.4-6.9,3.7c-2.1,1.3-3.3,2.4-3.6,3.2l0,0
						C486.1,152.1,486.1,152.6,486.6,152.4z"/>
				</g>
			</g>
		</g>
		<g transform="matrix(1,0,0,1,38.54960250854492,63.628318786621094)">
			<g transform="scale(1, 1)">
				<g transform="scale(1)">
					<path d="M74.9,179.9V203h2.9v-10.9h10.8V203h2.9v-23.1h-2.9v9.7H77.8v-9.7H74.9z M106.4,203.4c1.4,0,2.8-0.3,4-0.8
						c1.2-0.6,2.3-1.4,3.1-2.4c0.9-1,1.6-2.3,2-3.8c0.5-1.5,0.7-3.2,0.7-5s-0.2-3.5-0.7-5s-1.1-2.7-2-3.7s-1.9-1.8-3.1-2.4
						s-2.6-0.9-4-0.9c-1.5,0-2.8,0.3-4,0.8s-2.3,1.3-3.1,2.4c-0.9,1-1.5,2.3-2,3.7c-0.5,1.5-0.7,3.1-0.7,5s0.2,3.5,0.7,5
						s1.2,2.8,2,3.8c0.9,1.1,1.9,1.9,3.1,2.4C103.5,203.2,104.9,203.4,106.4,203.4z M106.4,200.9c-1,0-2-0.2-2.8-0.7
						c-0.8-0.4-1.5-1.1-2.1-1.9c-0.6-0.9-1.1-1.9-1.4-3c-0.3-1.2-0.5-2.5-0.5-3.9s0.2-2.7,0.5-3.9s0.8-2.1,1.4-2.9s1.3-1.4,2.1-1.9
						c0.9-0.4,1.8-0.6,2.8-0.6s2,0.2,2.8,0.6c0.9,0.4,1.6,1.1,2.1,1.9c0.6,0.8,1.1,1.8,1.4,2.9s0.5,2.4,0.5,3.9
						c0,1.4-0.2,2.8-0.5,3.9s-0.8,2.1-1.4,3c-0.6,0.8-1.3,1.5-2.1,1.9C108.4,200.6,107.4,200.9,106.4,200.9z M125.4,182.4v20.7h3
						v-20.7h7v-2.5h-16.9v2.5L125.4,182.4L125.4,182.4z M139.4,179.9V203h13.7v-2.5h-10.8v-8.4h8.8v-2.5h-8.8v-7.3h10.4v-2.5
						L139.4,179.9L139.4,179.9z M158,179.9V203h13.1v-2.5H161v-20.6H158z M183.1,196.9c0-0.9,0.3-1.7,0.8-2.4
						c0.6-0.7,1.2-1.4,2.1-2.1c0.8,1.2,1.8,2.4,2.8,3.6s2.1,2.3,3.3,3.3c-0.7,0.6-1.4,1-2.1,1.4s-1.5,0.5-2.3,0.5
						c-0.6,0-1.2-0.1-1.8-0.3s-1-0.5-1.4-0.9s-0.7-0.9-1-1.4S183.1,197.5,183.1,196.9z M185.9,184.9c0-1,0.3-1.8,0.8-2.4
						s1.2-1,2.1-1c0.8,0,1.4,0.3,1.7,0.8c0.4,0.5,0.5,1.1,0.5,1.8c0,0.5-0.1,1-0.3,1.4c-0.2,0.4-0.5,0.9-0.9,1.2
						c-0.4,0.4-0.8,0.8-1.3,1.1c-0.5,0.4-1,0.7-1.5,1.1c-0.3-0.7-0.6-1.4-0.8-2.1C185.9,186.2,185.9,185.5,185.9,184.9z
						 M199.4,203.4l0.8-2.4c-0.6-0.2-1.3-0.5-2-0.9s-1.5-0.8-2.3-1.4c0.9-1.2,1.7-2.5,2.4-3.9s1.2-2.9,1.7-4.4h-2.8
						c-0.4,1.4-0.8,2.6-1.4,3.7s-1.2,2.2-1.9,3.1c-1.1-0.9-2.2-1.9-3.2-3s-1.9-2.3-2.6-3.5c0.6-0.5,1.3-0.9,1.9-1.4s1.2-1,1.7-1.6
						s0.9-1.1,1.2-1.8c0.3-0.6,0.4-1.3,0.4-2.1c0-1.4-0.4-2.5-1.2-3.3c-0.8-0.9-1.9-1.3-3.4-1.3c-0.8,0-1.5,0.1-2.2,0.4
						c-0.6,0.3-1.2,0.7-1.7,1.1c-0.5,0.5-0.8,1.1-1.1,1.7c-0.3,0.7-0.4,1.4-0.4,2.1c0,0.9,0.1,1.7,0.4,2.6s0.6,1.8,1.1,2.8
						c-0.6,0.4-1.2,0.8-1.7,1.3s-1,1-1.4,1.5s-0.8,1.1-1,1.8c-0.2,0.6-0.4,1.4-0.4,2.1c0,0.9,0.2,1.8,0.5,2.6c0.4,0.8,0.8,1.5,1.4,2
						c0.6,0.6,1.4,1,2.2,1.3c0.8,0.3,1.8,0.5,2.9,0.5c1.4,0,2.6-0.2,3.7-0.7s2.1-1.1,3-1.9c0.9,0.7,1.9,1.2,2.7,1.6
						C197.6,202.9,198.5,203.2,199.4,203.4z M215.8,182.4v20.7h3v-20.7h7v-2.5h-16.9v2.5L215.8,182.4L215.8,182.4z M232.9,190.9
						v-8.6h3.9c1.8,0,3.2,0.3,4.2,0.9s1.4,1.7,1.4,3.2s-0.5,2.6-1.4,3.4s-2.4,1.1-4.2,1.1H232.9z M242.6,203h3.3l-5.9-10.1
						c1.6-0.4,2.9-1.1,3.8-2.2s1.4-2.5,1.4-4.3c0-1.2-0.2-2.2-0.6-3.1c-0.4-0.8-0.9-1.5-1.7-2c-0.7-0.5-1.6-0.9-2.6-1.1
						s-2.1-0.3-3.3-0.3h-7.2V203h2.9v-9.7h4.2L242.6,203z M259.9,193.6h-7l1.1-3.5c0.4-1.3,0.8-2.6,1.2-3.9c0.4-1.3,0.8-2.6,1.1-3.9
						h0.1c0.4,1.4,0.8,2.7,1.1,3.9c0.4,1.3,0.8,2.6,1.2,3.9L259.9,193.6z M260.6,196l2.2,7.1h3.1l-7.8-23.1h-3.3l-7.8,23.1h3
						l2.2-7.1L260.6,196L260.6,196z M269.2,179.9V203h2.8v-12.1c0-1.2-0.1-2.4-0.1-3.6c-0.1-1.2-0.1-2.4-0.3-3.6h0.1l2.5,4.8
						l8.4,14.6h3V180h-2.8v12c0,1.2,0.1,2.4,0.1,3.7c0.1,1.3,0.1,2.5,0.2,3.6l0,0l-2.5-4.8l-8.4-14.5h-3V179.9z M292.1,198l-1.8,2.1
						c1,1.1,2.2,1.9,3.6,2.5c1.4,0.6,2.9,0.9,4.5,0.9c1.2,0,2.3-0.1,3.3-0.5s1.8-0.8,2.5-1.4s1.2-1.3,1.6-2.1
						c0.4-0.8,0.5-1.7,0.5-2.6s-0.1-1.6-0.4-2.2c-0.3-0.6-0.6-1.2-1-1.7s-0.9-0.9-1.5-1.3s-1.2-0.7-1.9-1l-3.3-1.4
						c-0.5-0.2-0.9-0.4-1.4-0.6c-0.4-0.2-0.9-0.5-1.2-0.8c-0.4-0.3-0.7-0.6-0.9-1s-0.3-0.9-0.3-1.4c0-1.1,0.4-1.9,1.2-2.5
						s1.8-0.9,3.1-0.9c1.1,0,2.1,0.2,2.9,0.6c0.9,0.4,1.6,0.9,2.4,1.6l1.6-1.9c-0.8-0.9-1.8-1.6-3-2.1s-2.5-0.8-3.9-0.8
						c-1.1,0-2,0.2-2.9,0.5s-1.6,0.7-2.3,1.3c-0.6,0.6-1.1,1.2-1.5,1.9c-0.4,0.8-0.6,1.6-0.6,2.4s0.1,1.6,0.4,2.2
						c0.3,0.6,0.6,1.2,1.1,1.7c0.4,0.5,0.9,0.9,1.5,1.2c0.6,0.3,1.1,0.6,1.7,0.9l3.3,1.4c0.6,0.3,1.1,0.5,1.5,0.7
						c0.5,0.2,0.9,0.5,1.2,0.8c0.4,0.3,0.6,0.6,0.8,1.1c0.2,0.4,0.3,0.9,0.3,1.5c0,1.1-0.4,2.1-1.3,2.7c-0.9,0.7-2,1.1-3.6,1.1
						c-1.2,0-2.4-0.3-3.5-0.8C293.9,199.6,292.9,198.9,292.1,198z M310.9,179.9V203h2.9v-23.1H310.9z M320.2,179.9V203h13.7v-2.5
						h-10.8v-8.4h8.8v-2.5h-8.8v-7.3h10.4v-2.5L320.2,179.9L320.2,179.9z M338.9,179.9V203h2.8v-12.1c0-1.2-0.1-2.4-0.1-3.6
						c-0.1-1.2-0.2-2.4-0.3-3.6h0.1l2.5,4.8l8.4,14.6h3V180h-2.8v12c0,1.2,0,2.4,0.1,3.7s0.1,2.5,0.2,3.6h-0.1l-2.5-4.8l-8.4-14.5
						h-2.9V179.9z M366.4,182.4v20.7h2.9v-20.7h7v-2.5h-16.9v2.5L366.4,182.4L366.4,182.4z"/>
				</g>
			</g>
		</g>
	</g>
</g>
</svg>
