<svg xmlns="http://www.w3.org/2000/svg" viewBox="-0.01 0 1531.46 665.45"><defs><style>.cls-1{fill:#fff;}.cls-2{fill:#010101;}</style></defs><g id="Layer_1" data-name="Layer 1"><path class="cls-1" d="M217.4,0V636.59H202.88V57.89c-65.06,0-108.25,86.74-173.31,86.74V636.41H13.83C6.31,636.76-.34,643.93,0,651.63s7.52,14.16,15,13.81h548.8c7.69.18,14.69-6.82,14.69-14.51s-7-14.52-14.69-14.52H535.17V115.6C439,115.77,313.59,0,217.4,0ZM71.54,159.15h88C167,159.15,174,166,174,173.66V217c0,7.52-6.82,14.52-14.52,14.52H72.77c-7.52,0-14.52-6.82-14.52-14.52V173.66C58.43,166.49,64.37,159.85,71.54,159.15Zm187.83,0h88c7.52,0,14.51,6.82,14.51,14.51V217c0,7.52-6.82,14.52-14.51,14.52H260.59c-7.52,0-14.51-6.82-14.51-14.52V173.66C246.25,166.49,252.37,159.85,259.37,159.15Zm129.94,0h88c7.52,0,14.51,6.82,14.51,14.51V217c0,7.52-6.82,14.52-14.51,14.52H390.54C383,231.55,376,224.73,376,217V173.66c.17-7.17,6.3-13.81,13.29-14.51ZM71.54,260.41h88c7.52,0,14.52,6.82,14.52,14.51v43.37c0,7.52-6.82,14.52-14.52,14.52H72.77c-7.52,0-14.52-6.82-14.52-14.52V274.92C58.43,267.75,64.37,261.11,71.54,260.41Zm187.83,0h88c7.52,0,14.51,6.82,14.51,14.51v43.37c0,7.52-6.82,14.52-14.51,14.52H260.59c-7.52,0-14.51-6.82-14.51-14.52V274.92C246.25,267.75,252.37,261.11,259.37,260.41Zm129.94,0h88c7.52,0,14.51,6.82,14.51,14.51v43.37c0,7.52-6.82,14.52-14.51,14.52H390.54C383,332.81,376,326,376,318.29V274.92c.17-7.17,6.3-13.81,13.29-14.51ZM71.54,361.67h88c7.52,0,14.52,6.82,14.52,14.51v43.37c0,7.52-6.82,14.52-14.52,14.52H72.77c-7.52,0-14.52-6.82-14.52-14.52V376.18C58.43,369,64.37,362.37,71.54,361.67Zm187.83,0h88c7.52,0,14.51,6.82,14.51,14.51v43.37c0,7.52-6.82,14.52-14.51,14.52H260.59c-7.52,0-14.51-6.82-14.51-14.52V376.18C246.25,369,252.37,362.37,259.37,361.67Zm129.94,0h88c7.52,0,14.51,6.82,14.51,14.51v43.37c0,7.52-6.82,14.52-14.51,14.52H390.54c-7.52,0-14.52-6.82-14.52-14.52V376.18c.17-7.17,6.3-13.81,13.29-14.51ZM71.54,462.93h88c7.52,0,14.52,6.82,14.52,14.51v43.37c0,7.52-6.82,14.52-14.52,14.52H72.77c-7.52,0-14.52-6.82-14.52-14.52V477.44C58.43,470.27,64.37,463.62,71.54,462.93Zm187.83,0h88c7.52,0,14.51,6.82,14.51,14.51v43.37c0,7.52-6.82,14.52-14.51,14.52H260.59c-7.52,0-14.51-6.82-14.51-14.52V477.44C246.25,470.27,252.37,463.62,259.37,462.93Zm129.94,0H491.8c7.52,0,14.51,6.82,14.51,14.51V636.59H477.45V492H405.23V636.59H376.37V477.44c-.18-7.17,5.95-13.82,12.94-14.51Z"/><path class="cls-2" d="M293.9,297.23h0a22.74,22.74,0,0,1-10.6.24,11.17,11.17,0,0,1-6.75-4.1h0c-1.69-4.09-1.21-8.43,1-13a41.6,41.6,0,0,1,8.2-11.57h0c15.18-14.22,37.12-27.72,65.56-40a637.15,637.15,0,0,1,95.21-32.06,852.24,852.24,0,0,1,104.61-20.49c34.71-4.58,65.8-6.27,93-5.06h0a356.27,356.27,0,0,1,38.32,3.61,296,296,0,0,1,46.76,10.37c15.43,4.82,28,11.81,37.36,20.73h0c13.26,13.74,14.22,29.89,2.65,48.69h0c-8.67,13.5-22.89,25.55-42.9,36.15Q696.67,307,656.9,319.65c-26.51,8.43-53.75,16.15-82.19,22.89s-55.44,12.78-81.47,18.32h0c-20.73,4.34-41.22,9.16-61.95,14q-30.72,7.61-41.94,13h0c9.89,11.33,25.07,22.66,46,34.23,20.73,11.32,43.39,22.89,67.49,34h0c24.83,11.57,48.45,23.62,70.38,35.92s39,24.82,50.86,37.84q18.07,19.51,10.85,41.22h0a14.43,14.43,0,0,1-6.27,5.54,22.73,22.73,0,0,1-9.88,2.17h-1c-3.85-.24-6.75-1.21-8.67-2.65a5,5,0,0,1-1.93-5.79h0c3.85-11.57.24-22.9-11.33-34.22s-27.48-22.42-48-33.75c-20.48-11.09-42.42-22.17-65.8-32.78h0c-27.24-12.77-51.82-25.31-74-38.08C386,419,370.07,405.94,360.43,392.68h0a5.3,5.3,0,0,1-.48-5.06h0c3.61-7.23,15.42-14,35.91-20.25,20.49-6,51.1-13.26,91.35-21.93h0c24.35-5.31,49.66-10.85,76.17-17.12s52.06-13.25,76.65-21,45.8-16.15,64.11-25.55c18.08-9.16,30.86-19.52,38.33-30.85h0c8.68-14,8.19-26-1.21-35.91h0c-8-7.72-21-14.22-39-19-18.08-5.07-40-8.2-65.32-9.4h0c-24.35-1-52.31.48-84.37,4.82a868.74,868.74,0,0,0-96.41,18.8,620.33,620.33,0,0,0-88.22,28.92c-26.27,11.09-46,22.66-59,35.19h0a21.44,21.44,0,0,0-4.58,6.51,14.82,14.82,0,0,0-1.45,4.58h0c1.21,2.17.73,4.34-1,6.27C300.65,294.82,297.76,296.27,293.9,297.23Zm-27,193.07h0c-3.62-.48-6.27-1.69-7.72-3.38s-1.44-3.85,0-6h0c23.14-34.47,49.42-70.87,78.58-108.71h0c17.12-22.41,35.19-46.76,54.72-72.79h0c1.44-2.17,3.85-3.86,7.47-5.06a23,23,0,0,1,10.6-1h0c3.86.73,6.27,1.93,7.72,3.86,1.2,1.93,1.2,3.86-.48,6.27h0c-19.29,26.27-37.61,50.61-54.72,73h0Q319.7,432.93,285,484.27h0c-1.21,1.93-3.38,3.38-6.27,4.58a23.68,23.68,0,0,1-9.16,1.69h0A9.07,9.07,0,0,1,266.91,490.3Zm353.84-44.83h0a29.3,29.3,0,0,1-3.38,1.2h0a22.94,22.94,0,0,0-1.69,11.57h0c.49.72,1,1.45,1.45,2.17a3.87,3.87,0,0,0,2.17,1.69h0c5.3,1.44,11.57,1.44,18.56.48a136.47,136.47,0,0,0,20.25-4.34h0c11.57-3.61,27.47-10.36,47.48-19.76s35.19-17.6,45.31-23.87h0c3.14-1.68,6-2.41,8.68-1.44,2.65.72,1.93,3.61-1.69,8.68s-11.32,11.32-23.13,19S706.31,457,684.86,466s-41.7,13.74-60.5,14.23h0a75.35,75.35,0,0,1-20.49-2.66h0a27.58,27.58,0,0,1-9.4-4.33,17.31,17.31,0,0,1-6-9.41h0c-1.69-8.67,1.2-18.8,8.43-30.12a121.25,121.25,0,0,1,27-29.65h0a217.9,217.9,0,0,1,50.86-29.17c18.32-7.47,34.47-10.84,48.2-10.6h0a44.87,44.87,0,0,1,8.2,1,17.48,17.48,0,0,1,9.16,4.58h0c2.89,3.38,2.17,7.47-2.17,12.54h0c-5.54,6-15.19,13-28.68,20.72-13.74,8-28.69,15.67-44.84,23.63C648.47,433.66,634,440.16,620.75,445.47Zm24.58-34h0A91.38,91.38,0,0,0,635,420.64h0c34.47-15.91,59-29.41,73.75-40h0c-8,1.44-17.59,4.58-29.16,9.88C668,395.57,656.9,402.56,645.33,411.48ZM815,468.36h0C813.33,463.79,813.81,458,817,451h0c-5.3,3.62-10.13,6.51-14.22,9.16h0a109.32,109.32,0,0,1-13,6.51,30.12,30.12,0,0,1-16.63,1.93h0c-6-1.21-9.4-3.62-10.61-6.75a17.06,17.06,0,0,1-1-8.92h0q.72-13.74,17.35-35.43h0a272.39,272.39,0,0,0-37.6,31.57h0c-4.09,4.58-8.19,9.16-11.81,13.74h0c-1.68,2.17-4.58,3.62-8.19,4.58a22.72,22.72,0,0,1-10.61.48h0c-3.61-.72-6-2.17-7-3.85-1.2-1.93-1-3.86,1-6h0a199.86,199.86,0,0,1,13.49-15.43h0c7.24-7.71,14.47-15.42,21.7-22.65h0q18.07-18.07,34-36.88h0a16.17,16.17,0,0,1,8.2-4.82,22.55,22.55,0,0,1,10.6-.48h0c4.34,1,6.75,2.65,7.23,5.3h0q13.74-7.59,24.59-12.29h0a28.2,28.2,0,0,1,9.16-2.17,17.49,17.49,0,0,1,8.68,1.44h0a6.55,6.55,0,0,1,3.61,4.58c.24,1.69-.48,3.62-2.65,5.31h0c-19.28,18.07-32.54,32.53-40,43.14s-11.57,18.32-12.53,22.9h0c17.83-11.81,39-27.24,63.63-46h0C870,388.1,884,377.49,896.73,368.58h0a20,20,0,0,1,9.4-3.38,19,19,0,0,1,9.88,1h0c2.9,1.2,4.58,2.89,4.82,4.82s-.72,4.09-3.13,6h0C891,399,871.9,416.54,860.33,429.8S843,452.7,842.74,458.24h0c10.12-2.89,24.34-8.68,42.9-16.87a450,450,0,0,0,50.62-26.51h0a15.39,15.39,0,0,1,8.92-2.66c3.13,0,3.13,2.41.48,6.51-2.89,4.34-11.81,11.57-27.48,21.94a246.69,246.69,0,0,1-47.24,24.82c-16.15,6.27-28.92,9.64-38.32,9.88h-1.21C822.49,475.35,817.19,472.94,815,468.36Zm310.69-52.06h0c-1.2,3.13-12.29,11.09-33.26,24.35-21.21,13.25-38.32,22.17-51.58,27.23s-23.86,7.72-32.3,8h-.24c-10.85,0-18.08-2.65-22.18-7.72h0c-3.37-4.82-2.65-11.57,2.17-20h0a178.56,178.56,0,0,1-29.88,11.81,86.94,86.94,0,0,1-29.17,3.37h0c-7.23-.72-12.77-1.93-16.39-4.09-3.62-1.93-5.79-4.1-7-6.27h0c-2.65-5.79-1.45-12.78,3.37-21a138.63,138.63,0,0,1,21.46-26,335.57,335.57,0,0,1,29.4-25.79h0a19.46,19.46,0,0,1,9.4-3.86,24.76,24.76,0,0,1,10.37.72h0c3.13,1.21,4.82,2.65,5.06,4.82s-.72,4.1-3.13,6h0c-19.05,15.67-32.3,28.44-40,38.32s-10.84,16.39-8.91,19.29h0c0,.24.24.24.48.48s.48.24,1.2.48a21,21,0,0,0,2.41.48h0c.73,0,1.21.24,1.93.24h0c8.2-.24,17.6-2.89,28-7.95a277.11,277.11,0,0,0,31.82-18.56c10.84-7.47,20.73-14.7,30.13-22.18s16.87-13.49,22.41-18.31h0c5.55-4.82,10.13-8.44,13.5-11.33h0a22.06,22.06,0,0,1,19.53-2.65h0c2.89,1.2,4.57,2.65,5.06,4.82.48,1.93-.49,4.09-2.9,6h0c-26.27,22.18-45.79,40.5-58.57,55.2s-18.07,23.86-15.91,27.24h1.21c4.82-.73,13.5-3.62,26.27-9.16C1052,445,1065,438.72,1078.23,432s23.86-12.54,31.57-17.36h0a25.82,25.82,0,0,1,10.61-2.89C1125,412,1126.44,413.41,1125.71,416.3ZM1295.16,243h0c11.33,2.17,17.6,7,19,14.7h0c.72,9.88-6.27,22.9-20.73,39.05S1260.93,330,1239,348.09c-21.94,17.84-43.63,34.23-64.84,49.17s-38.32,26-51.34,33.26h0c-6.51,13.26-9.88,22.9-10.12,28.69s.24,9.15,1.93,9.88h0c6.26-.48,16.87-3.86,31.81-9.88s31.1-13.26,48-21.46c17.11-8.19,31.57-15.9,43.63-23.14h0a21,21,0,0,1,8.67-2.17c3.62-.24,5.55,1.21,5.55,3.86h0c-.25,3.38-5.55,8.68-15.67,16.15-10.37,7.47-23.38,14.94-39.29,22.9a494.21,494.21,0,0,1-48.21,20.73q-24.58,8.67-41.21,9.4h0a29.81,29.81,0,0,1-8.44-1h0c-9.88-3.13-14.46-9.64-14.46-19.28.24-9.64,3.61-21.21,10.36-34.47h0c-.48-2.65.73-4.82,3.86-7.23h0A462,462,0,0,1,1139.45,364q23.5-29.65,39.77-47h0c19.29-20,35.68-35.44,49.17-46s24.83-17.84,34-21.94,16.39-6.26,21.69-6.5S1293.23,242.27,1295.16,243ZM1143.79,395.33h0c21-14.22,42.42-30.37,64.6-48.21s40.73-34.46,55.92-50.13,22.65-27.48,22.17-35.19h0a3.7,3.7,0,0,0-1.2-2.41,2.31,2.31,0,0,0-1.69-.48h0c-7.23,1-19,7.71-34.95,20.72s-33.5,29.89-52.3,50.14A553.5,553.5,0,0,0,1143.79,395.33Zm286.83,21h0c-1.2,3.13-12.29,11.09-33.5,24.35s-38.33,22.17-51.34,27.23c-13.26,5.06-23.87,7.72-32.3,8h-.24c-10.61,0-18.08-2.65-21.94-7.72h0c-3.37-4.82-2.65-11.57,2.17-20h0a178.32,178.32,0,0,1-29.89,11.81,86.85,86.85,0,0,1-29.16,3.37h0c-7.23-.72-12.78-1.93-16.39-4.09-3.62-1.93-5.79-4.1-7-6.27h0c-2.65-5.79-1.45-12.78,3.37-21a138.63,138.63,0,0,1,21.46-26,334.12,334.12,0,0,1,29.4-25.79h0a19.46,19.46,0,0,1,9.4-3.86A25.06,25.06,0,0,1,1285,377h0c3.13,1.21,4.82,2.65,5.06,4.82s-.72,4.1-3.13,6h0c-19,15.67-32.3,28.44-40,38.32s-10.6,16.39-8.91,19.29h0c0,.24.24.24.48.48s.72.24,1.2.48c.73.24,1.45.24,2.41.48h0c.73,0,1.21.24,1.93.24h0c8.2-.24,17.6-2.89,28-7.95a277.11,277.11,0,0,0,31.82-18.56c10.6-7.47,20.73-14.7,30.13-22.18s16.87-13.49,22.41-18.31h0c5.55-4.82,10.13-8.44,13.5-11.33h0a22,22,0,0,1,19.52-2.65h0c2.9,1.2,4.58,2.65,5.07,4.82s-.49,4.09-2.9,6h0c-26.27,22.18-45.79,40.5-58.57,55.2s-18.08,23.86-15.91,27.24h1.21c4.82-.73,13.74-3.62,26.27-9.16,12.54-5.31,25.55-11.57,38.81-18.32s23.86-12.54,31.82-17.36h0a25.73,25.73,0,0,1,10.6-2.89C1429.9,412,1431.34,413.41,1430.62,416.3Zm-51.34,62.19h0c-1.2-3.62-.48-6.75,2.65-9.64a47.57,47.57,0,0,1,11.09-7.72c4.34-2.17,7.71-3.61,10.61-4.82h0a257.16,257.16,0,0,1,26-9.4c7.47-2.17,14.22-3.85,20.49-5.3h0c-1.21-1.69-3.38-3.37-6.75-5.3s-7-3.62-11.09-5.55h0c-.24,0-.48-.24-.72-.24h0a96.94,96.94,0,0,1-8.92-4.1h0a17.31,17.31,0,0,1-4.82-2.16h0a13.28,13.28,0,0,0-1.93-1.45h0a37.37,37.37,0,0,1-11.09-9.88q-4-5.79-1.45-13.74h0c3.62-7.47,12.54-15.19,26.76-22.9,14.46-7.71,28-12.78,40.73-14.94h0c13.5-1.69,22.42.48,26.52,6.74h0c4.1,5.79.48,13-11.09,21.7a219.58,219.58,0,0,1-40,23.62h0c3.13,2.41,4.82,3.61,4.82,3.61h0l.24.25h0c5.06,2.16,9.88,4.58,14.7,7.23,4.58,2.65,8.2,5.54,10.37,9.16h0c9.64-3.38,22.66-9.89,39.53-19.53h0c5.06-2.89,9.4-3.85,13.5-3.61,4.09.48,1.92,4.34-6,11.81a114.74,114.74,0,0,1-26,18.07c-9.16,4.58-17.36,8.68-24.35,11.82h0q-10.85,12.28-31.09,21c-13.5,5.78-25.31,9.4-35.91,11.08h0a74.64,74.64,0,0,1-9.65.73h0a36.25,36.25,0,0,1-10.12-1.21c-2.41-1-4.1-1.69-5.06-2.89A20.32,20.32,0,0,0,1379.28,478.49Zm51.82-75.2h0l.24,1.2a205.42,205.42,0,0,0,28.21-15.43c7.23-5.06,11.32-8.67,12-11.08h0a58.65,58.65,0,0,0-15.43,5.3,176.08,176.08,0,0,0-16.63,8.92c-5.06,3.13-8,5.78-8.68,7.71h0C1429.9,402.56,1429.9,403.77,1431.1,403.29Z"/><path class="cls-2" d="M683.59,517.91V581.8h8V551.65h29.87V581.8h8V517.91h-8v26.83H691.61V517.91Zm87.12,65a29.29,29.29,0,0,0,11.06-2.21,26.76,26.76,0,0,0,14.11-17.15,50.48,50.48,0,0,0,0-27.65,27.78,27.78,0,0,0-5.53-10.23,28.57,28.57,0,0,0-8.58-6.64,24.94,24.94,0,0,0-11.06-2.49,28.22,28.22,0,0,0-11.06,2.21,20.13,20.13,0,0,0-8.58,6.64,30.57,30.57,0,0,0-5.53,10.23,50.52,50.52,0,0,0,0,27.66,34.52,34.52,0,0,0,5.53,10.51,22,22,0,0,0,8.58,6.64C762.69,582.35,766.56,582.9,770.71,582.9Zm0-6.91a14.59,14.59,0,0,1-7.74-1.94,17.26,17.26,0,0,1-5.81-5.25,28.57,28.57,0,0,1-3.87-8.3,42.54,42.54,0,0,1,0-21.57,21.66,21.66,0,0,1,3.87-8,20.8,20.8,0,0,1,5.81-5.25,18.51,18.51,0,0,1,7.74-1.66,17.58,17.58,0,0,1,7.74,1.66,13.33,13.33,0,0,1,5.81,5.25,24,24,0,0,1,3.87,8,40.87,40.87,0,0,1,1.39,10.79,42.45,42.45,0,0,1-1.39,10.78,28.57,28.57,0,0,1-3.87,8.3,17.26,17.26,0,0,1-5.81,5.25A17.72,17.72,0,0,1,770.71,576Zm52.55-51.16v57.24h8.3V524.83h19.35v-6.92H804.18v6.92ZM862,517.91V581.8h37.89v-6.92H870V551.65h24.34v-6.91H870V524.55h28.76v-6.91l-36.78.27Zm51.44,0V581.8h36.23v-6.92H921.72v-57Zm69.42,47a11.28,11.28,0,0,1,2.21-6.64,38.34,38.34,0,0,1,5.81-5.81,122.16,122.16,0,0,0,7.74,10,71.59,71.59,0,0,0,9.13,9.13,36.19,36.19,0,0,1-5.81,3.87,12.68,12.68,0,0,1-6.36,1.38,15.76,15.76,0,0,1-5-.83,9.26,9.26,0,0,1-3.87-2.49,19.4,19.4,0,0,1-2.77-3.87A9.07,9.07,0,0,1,982.84,564.93Zm7.74-33.19a10.11,10.11,0,0,1,2.21-6.64,7.36,7.36,0,0,1,5.81-2.76,5.2,5.2,0,0,1,4.7,2.21,7.53,7.53,0,0,1,1.39,5,8.89,8.89,0,0,1-.83,3.87,9.68,9.68,0,0,1-2.49,3.32,19.52,19.52,0,0,1-3.6,3c-1.38,1.11-2.76,1.94-4.15,3a48.6,48.6,0,0,1-2.21-5.81A11.62,11.62,0,0,1,990.58,531.74Zm37.34,51.16,2.21-6.63a32.1,32.1,0,0,1-5.53-2.49,56,56,0,0,1-6.36-3.87,70,70,0,0,0,6.63-10.79,92.57,92.57,0,0,0,4.71-12.17h-7.75a48.86,48.86,0,0,1-3.87,10.23,64.59,64.59,0,0,1-5.25,8.58,82,82,0,0,1-8.85-8.3,58.37,58.37,0,0,1-7.2-9.68c1.66-1.38,3.6-2.49,5.26-3.87a35.2,35.2,0,0,0,4.7-4.43,19.72,19.72,0,0,0,3.32-5,12.84,12.84,0,0,0,1.11-5.81q0-5.81-3.32-9.13c-2.22-2.49-5.26-3.59-9.41-3.59a14.87,14.87,0,0,0-6.08,1.1,27.64,27.64,0,0,0-4.7,3,17.33,17.33,0,0,0-3,4.71,14.41,14.41,0,0,0-1.11,5.8,21.62,21.62,0,0,0,1.11,7.19,56.36,56.36,0,0,0,3,7.75,29.78,29.78,0,0,0-4.7,3.59,54.42,54.42,0,0,0-3.88,4.15,14.49,14.49,0,0,0-2.76,5,19.78,19.78,0,0,0-1.11,5.81,20.75,20.75,0,0,0,1.39,7.19,16.4,16.4,0,0,0,3.87,5.53,16.92,16.92,0,0,0,6.08,3.6,23.12,23.12,0,0,0,8,1.38,24.1,24.1,0,0,0,10.24-1.94,32.43,32.43,0,0,0,8.29-5.25,43.89,43.89,0,0,0,7.47,4.42A13.94,13.94,0,0,0,1027.92,582.9Zm45.35-58.07v57.24h8.3V524.83h19.36v-6.92h-46.74v6.92Zm47.3,23.5V524.55h10.78q7.47,0,11.62,2.49c2.76,1.66,3.87,4.7,3.87,8.85s-1.38,7.19-3.87,9.4-6.64,3-11.62,3Zm26.82,33.47h9.13l-16.32-27.93c4.43-1.11,8-3,10.51-6.09a18,18,0,0,0,3.87-11.89,20.59,20.59,0,0,0-1.66-8.58,12.94,12.94,0,0,0-4.7-5.53,18.78,18.78,0,0,0-7.19-3,46.81,46.81,0,0,0-9.12-.83H1112V581.8h8V555h11.62Zm47.85-26h-19.36l3-9.68q1.66-5.39,3.32-10.78c1.11-3.6,2.21-7.2,3-10.79h.28c1.11,3.87,2.21,7.47,3,10.79q1.67,5.38,3.32,10.78Zm1.93,6.64,6.09,19.63h8.57l-21.57-63.88h-9.13l-21.57,63.88h8.3l6.08-19.63ZM1221,517.91V581.8h7.74V548.33c0-3.31-.27-6.63-.27-10-.28-3.32-.28-6.64-.83-10h.27l6.92,13.28L1258,582.07h8.3V518.19h-7.75v33.19c0,3.31.28,6.63.28,10.23.28,3.59.28,6.91.55,10h0l-6.91-13.28-23.23-40.1H1221v-.28ZM1284.29,568l-5,5.81a28.15,28.15,0,0,0,10,6.91,31.25,31.25,0,0,0,12.45,2.49,24.41,24.41,0,0,0,9.12-1.38,23.8,23.8,0,0,0,6.92-3.87,18.06,18.06,0,0,0,4.42-5.81,15.85,15.85,0,0,0,1.39-7.19,13.33,13.33,0,0,0-1.11-6.09,25.94,25.94,0,0,0-2.77-4.7,17.45,17.45,0,0,0-4.15-3.59,30.73,30.73,0,0,0-5.25-2.77l-9.13-3.87c-1.38-.55-2.49-1.11-3.87-1.66A13.92,13.92,0,0,1,1294,540a8,8,0,0,1-2.49-2.77,8.89,8.89,0,0,1-.83-3.87,8,8,0,0,1,3.32-6.91,13.75,13.75,0,0,1,8.58-2.49,18,18,0,0,1,8,1.66,24.92,24.92,0,0,1,6.63,4.42l4.43-5.25a22.41,22.41,0,0,0-8.3-5.81,27.87,27.87,0,0,0-10.78-2.21,24.32,24.32,0,0,0-8,1.38,18,18,0,0,0-6.36,3.59A24.52,24.52,0,0,0,1284,527a14.66,14.66,0,0,0-1.66,6.64,14.05,14.05,0,0,0,1.1,6.08,16.93,16.93,0,0,0,3,4.7,12.19,12.19,0,0,0,4.14,3.32c1.66.83,3,1.66,4.71,2.49l9.12,3.87c1.66.83,3,1.38,4.15,1.94a9.93,9.93,0,0,1,3.32,2.21,6.21,6.21,0,0,1,2.21,3,9.16,9.16,0,0,1,.83,4.15,8.59,8.59,0,0,1-3.59,7.47c-2.49,1.93-5.53,3-10,3a23.61,23.61,0,0,1-9.68-2.21A28.81,28.81,0,0,1,1284.29,568Zm52-50.06V581.8h8V517.91Zm25.72,0V581.8h37.89v-6.92H1370V551.65h24.34v-6.91H1370V524.55h28.76v-6.91l-36.78.27Zm51.72,0V581.8h7.74V548.33c0-3.31-.28-6.63-.28-10q-.4-5-.83-10h.28l6.91,13.28,23.24,40.37h8.29V518.19h-7.74v33.19c0,3.31,0,6.63.27,10.23s.28,6.91.56,10h-.28L1445,558.29l-23.23-40.1h-8v-.28Zm76,6.92v57.24h8V524.83h19.36v-6.92h-46.74v6.92Z"/></g></svg>