<svg xmlns="http://www.w3.org/2000/svg" id="Layer_1" data-name="Layer 1" viewBox="0 0 528.34 496.52"><defs><style>.cls-1,.cls-2{fill:#fff;}.cls-1{fill-opacity:0;}.cls-3{fill:#010101;}</style></defs><rect class="cls-1" x="98.55" width="330.9" height="380.5"/><path class="cls-2" d="M222.83,0V364h-8.3V33.14c-37.2,0-61.9,49.6-99.1,49.6v281.2h-9a8.63,8.63,0,0,0-7.9,8.7,8.53,8.53,0,0,0,8.6,7.9h313.8a8.3,8.3,0,1,0,0-16.6h-16.4V66.14C349.45,66.24,277.83,0,222.83,0Zm-83.4,91h50.3a8.62,8.62,0,0,1,8.3,8.3v24.8a8.62,8.62,0,0,1-8.3,8.3h-49.6a8.63,8.63,0,0,1-8.3-8.3V99.34A8.77,8.77,0,0,1,139.45,91Zm107.4,0h50.3a8.62,8.62,0,0,1,8.3,8.3v24.8a8.62,8.62,0,0,1-8.3,8.3h-49.6a8.63,8.63,0,0,1-8.3-8.3V99.34A8.76,8.76,0,0,1,246.83,91Zm74.3,0h50.3a8.62,8.62,0,0,1,8.3,8.3v24.8a8.62,8.62,0,0,1-8.3,8.3h-49.6a8.63,8.63,0,0,1-8.3-8.3V99.34a8.87,8.87,0,0,1,7.6-8.3Zm-181.7,57.9h50.3a8.62,8.62,0,0,1,8.3,8.3V182a8.62,8.62,0,0,1-8.3,8.3h-49.6a8.63,8.63,0,0,1-8.3-8.3V157.2a8.77,8.77,0,0,1,7.62-8.26Zm107.4,0h50.3a8.62,8.62,0,0,1,8.3,8.3V182a8.62,8.62,0,0,1-8.3,8.3h-49.6a8.63,8.63,0,0,1-8.3-8.3V157.2a8.77,8.77,0,0,1,7.6-8.26Zm74.3,0h50.3a8.62,8.62,0,0,1,8.3,8.3V182a8.62,8.62,0,0,1-8.3,8.3h-49.6a8.63,8.63,0,0,1-8.3-8.3V157.2a8.87,8.87,0,0,1,7.6-8.3Zm-181.7,57.9h50.3a8.62,8.62,0,0,1,8.3,8.3v24.8a8.62,8.62,0,0,1-8.3,8.3h-49.6a8.63,8.63,0,0,1-8.3-8.3V215.1a8.77,8.77,0,0,1,7.62-8.26Zm107.4,0h50.3a8.62,8.62,0,0,1,8.3,8.3v24.8a8.62,8.62,0,0,1-8.3,8.3h-49.6a8.63,8.63,0,0,1-8.3-8.3V215.1a8.77,8.77,0,0,1,7.6-8.26Zm74.3,0h50.3a8.62,8.62,0,0,1,8.3,8.3v24.8a8.62,8.62,0,0,1-8.3,8.3h-49.6a8.63,8.63,0,0,1-8.3-8.3V215.1a8.87,8.87,0,0,1,7.6-8.3Zm-181.7,57.9h50.3A8.62,8.62,0,0,1,198,273v24.8a8.62,8.62,0,0,1-8.3,8.3h-49.6a8.63,8.63,0,0,1-8.3-8.3V273a8.77,8.77,0,0,1,7.62-8.26Zm107.4,0h50.3a8.62,8.62,0,0,1,8.3,8.3v24.8a8.62,8.62,0,0,1-8.3,8.3h-49.6a8.63,8.63,0,0,1-8.3-8.3V273a8.77,8.77,0,0,1,7.6-8.26Zm74.3,0h58.6A8.62,8.62,0,0,1,388,273v91h-16.5V281.3h-41.3V364h-16.5V273a8.5,8.5,0,0,1,7.4-8.3Z"/><path class="cls-3" d="M14.84,337.79h0a9.49,9.49,0,0,1-4.4.1,4.67,4.67,0,0,1-2.8-1.7h0a6.47,6.47,0,0,1,.4-5.4,17.09,17.09,0,0,1,3.4-4.8h0c6.3-5.9,15.4-11.5,27.2-16.6a263.13,263.13,0,0,1,39.5-13.3,351.75,351.75,0,0,1,43.4-8.5,222.48,222.48,0,0,1,38.6-2.1h0A146.16,146.16,0,0,1,176,287a121.55,121.55,0,0,1,19.4,4.3,39.13,39.13,0,0,1,15.55,8.6h0c5.5,5.7,5.9,12.4,1.1,20.2h0c-3.6,5.6-9.5,10.6-17.8,15a163.05,163.05,0,0,1-28.8,12c-11,3.5-22.3,6.7-34.1,9.5s-23,5.3-33.8,7.6h0C89,366,80.49,368,71.89,370s-14.3,3.9-17.4,5.4h0c4.1,4.7,10.4,9.4,19.1,14.2s18,9.5,28,14.1h0c10.3,4.8,20.1,9.8,29.2,14.9s16.2,10.3,21.1,15.7,6.5,11.1,4.5,17.1h0a5.92,5.92,0,0,1-2.6,2.3,9.5,9.5,0,0,1-4.1.9h-.4a6.77,6.77,0,0,1-3.6-1.1,2.09,2.09,0,0,1-.8-2.4h0c1.6-4.8.1-9.5-4.7-14.2s-11.4-9.3-19.9-14-17.6-9.2-27.3-13.6h0c-11.3-5.3-21.5-10.5-30.7-15.8s-15.8-10.6-19.8-16.1h0a2.19,2.19,0,0,1-.2-2.1h0c1.5-3,6.4-5.8,14.9-8.4s21.2-5.5,37.9-9.1h0c10.1-2.2,20.6-4.5,31.6-7.1s21.6-5.5,31.8-8.7a169.48,169.48,0,0,0,26.6-10.6c7.5-3.8,12.8-8.1,15.9-12.8h0c3.6-5.8,3.4-10.8-.5-14.9h0c-3.3-3.2-8.7-5.9-16.2-7.9a123.42,123.42,0,0,0-27.1-3.9h0a201.89,201.89,0,0,0-35,2,359.89,359.89,0,0,0-40,7.8,257.14,257.14,0,0,0-36.6,12c-10.9,4.6-19.1,9.4-24.5,14.6h0a8.81,8.81,0,0,0-1.9,2.7,6,6,0,0,0-.6,1.9h0a2.14,2.14,0,0,1-.4,2.6C17.64,336.79,16.44,337.39,14.84,337.79Zm-11.2,80.1h0a5,5,0,0,1-3.2-1.4,2,2,0,0,1,0-2.5h0c9.6-14.3,20.5-29.4,32.6-45.1h0c7.1-9.3,14.6-19.4,22.7-30.2h0a5.7,5.7,0,0,1,3.1-2.1,9.51,9.51,0,0,1,4.4-.4h0a4.85,4.85,0,0,1,3.2,1.6,2.14,2.14,0,0,1-.2,2.6h0c-8,10.9-15.6,21-22.7,30.3h0q-18,23.4-32.4,44.7h0a5.38,5.38,0,0,1-2.6,1.9,9.89,9.89,0,0,1-3.8.7h0A4.07,4.07,0,0,1,3.64,417.89Zm146.8-18.6h0a13.7,13.7,0,0,1-1.4.5h0a9.39,9.39,0,0,0-.7,4.8h0l.6.9a1.62,1.62,0,0,0,.9.7h0a19.76,19.76,0,0,0,7.7.2,58,58,0,0,0,8.45-1.8h0a171.15,171.15,0,0,0,19.7-8.2,195.73,195.73,0,0,0,18.8-9.9h0a4.37,4.37,0,0,1,3.6-.6c1.1.3.8,1.5-.7,3.6s-4.7,4.7-9.6,7.9a131.4,131.4,0,0,1-20.7,10.4c-8.9,3.7-17.3,5.7-25.1,5.9h0a31.68,31.68,0,0,1-8.5-1.1h0a11.46,11.46,0,0,1-3.9-1.8,7.2,7.2,0,0,1-2.5-3.9h0c-.7-3.6.5-7.8,3.5-12.5a50.09,50.09,0,0,1,11.2-12.3h0a89.89,89.89,0,0,1,21.1-12.1c7.6-3.1,14.3-4.5,20-4.4h0a18.56,18.56,0,0,1,3.4.4,7.24,7.24,0,0,1,3.8,1.9h0c1.2,1.4.9,3.1-.9,5.2h0c-2.3,2.5-6.3,5.4-11.9,8.6s-11.9,6.5-18.6,9.8C161.84,394.39,155.84,397.09,150.44,399.29Zm10.2-14.1h0a36.07,36.07,0,0,0-4.3,3.8h0c14.3-6.6,24.5-12.2,30.6-16.6h0a51.71,51.71,0,0,0-12.1,4.1,64.82,64.82,0,0,0-14.2,8.7Zm70.4,23.6h0c-.7-1.9-.5-4.3.8-7.2h0c-2.2,1.5-4.2,2.7-5.9,3.8h0a45.33,45.33,0,0,1-5.4,2.7,12.54,12.54,0,0,1-6.9.8h0c-2.5-.5-3.9-1.5-4.4-2.8a7,7,0,0,1-.4-3.7h0q.3-5.7,7.2-14.7h0a111.61,111.61,0,0,0-15.6,13.1h0c-1.7,1.9-3.4,3.8-4.9,5.7h0a6.26,6.26,0,0,1-3.4,1.9,9.49,9.49,0,0,1-4.4.2h0a4.21,4.21,0,0,1-2.9-1.6,1.9,1.9,0,0,1,.4-2.5h0a79.15,79.15,0,0,1,5.6-6.4h0c3-3.2,6-6.4,9-9.4h0q7.5-7.5,14.1-15.3h0a6.72,6.72,0,0,1,3.4-2,9.36,9.36,0,0,1,4.4-.2h0c1.8.4,2.8,1.1,3,2.2h0q5.7-3.15,10.2-5.1h0a11.6,11.6,0,0,1,3.8-.9,7.19,7.19,0,0,1,3.6.6h0a2.69,2.69,0,0,1,1.5,1.9,2.4,2.4,0,0,1-1.1,2.2h0c-8,7.5-13.5,13.5-16.6,17.9s-4.8,7.6-5.2,9.5h0c7.4-4.9,16.2-11.3,26.4-19.1h0c6.5-4.9,12.3-9.3,17.6-13h0a8.28,8.28,0,0,1,3.9-1.4,7.85,7.85,0,0,1,4.1.4h0c1.2.5,1.9,1.2,2,2a2.86,2.86,0,0,1-1.3,2.5h0c-11.1,9.1-19,16.4-23.8,21.9s-7.2,9.5-7.3,11.8h0a158,158,0,0,0,17.8-7,187.18,187.18,0,0,0,21-11h0a6.33,6.33,0,0,1,3.7-1.1c1.3,0,1.3,1,.2,2.7s-4.9,4.8-11.4,9.1a102.92,102.92,0,0,1-19.6,10.3c-6.7,2.6-12,4-15.9,4.1h-.5c-3.7,0-5.85-1-6.8-2.9Zm129-21.6h0c-.5,1.3-5.1,4.6-13.8,10.1s-15.9,9.2-21.4,11.3-9.9,3.2-13.4,3.3h-.1c-4.5,0-7.5-1.1-9.2-3.2h0c-1.4-2-1.1-4.8.9-8.3h0a74.71,74.71,0,0,1-12.4,4.9,36.14,36.14,0,0,1-12.1,1.4h0c-3-.3-5.3-.8-6.8-1.7a6.82,6.82,0,0,1-2.9-2.6h0c-1.1-2.4-.6-5.3,1.4-8.7a56.93,56.93,0,0,1,8.9-10.8,137.74,137.74,0,0,1,12.2-10.7h0a8.05,8.05,0,0,1,3.9-1.6,10.09,10.09,0,0,1,4.3.3h0c1.3.5,2,1.1,2.1,2a2.75,2.75,0,0,1-1.3,2.5h0c-7.9,6.5-13.4,11.8-16.6,15.9s-4.5,6.8-3.7,8h0c0,.1.1.1.2.2s.2.1.5.2.66.15,1,.2h0c.3,0,.5.1.8.1h0a29.11,29.11,0,0,0,11.6-3.3,116.78,116.78,0,0,0,13.2-7.7c4.5-3.1,8.6-6.1,12.5-9.2s7-5.6,9.3-7.6h0c2.3-2,4.2-3.5,5.6-4.7h0a9.14,9.14,0,0,1,8.1-1.1h0c1.2.5,1.9,1.1,2.1,2a2.54,2.54,0,0,1-1.2,2.5h0c-10.9,9.2-19,16.8-24.3,22.9s-7.5,9.9-6.6,11.3h.5c2-.3,5.6-1.5,10.9-3.8s10.6-4.8,16.1-7.6,9.9-5.2,13.1-7.2h0a10.41,10.41,0,0,1,4.4-1.2C359.54,385.39,360.24,386,360,387.19Zm70.3-71.9h0c4.7.9,7.3,2.9,7.9,6.1h0c.3,4.1-2.6,9.5-8.6,16.2a210.68,210.68,0,0,1-22.7,21.3c-9.1,7.4-18.1,14.2-26.9,20.4a252.34,252.34,0,0,1-21.3,13.8h0c-2.7,5.5-4.1,9.5-4.2,11.9s.1,3.8.8,4.1h0c2.6-.2,7-1.6,13.2-4.1s12.9-5.5,19.9-8.9,13.1-6.6,18.1-9.6h0a8.51,8.51,0,0,1,3.6-.9c1.5-.1,2.3.5,2.3,1.6h0c-.1,1.4-2.3,3.6-6.5,6.7a121.11,121.11,0,0,1-16.3,9.5,205.12,205.12,0,0,1-20,8.6q-10.2,3.6-17.1,3.9h0a12.51,12.51,0,0,1-3.5-.4h0c-4.1-1.3-6-4-6-8s1.5-8.8,4.3-14.3h0c-.2-1.1.3-2,1.6-3h0a191.07,191.07,0,0,1,16.7-24.7q9.75-12.3,16.5-19.5h0a211.69,211.69,0,0,1,20.4-19.1,71.49,71.49,0,0,1,14.1-9.1q5.7-2.55,9-2.7a15.44,15.44,0,0,1,4.65.2Zm-62.9,63.2h0c8.7-5.9,17.6-12.6,26.8-20a255.6,255.6,0,0,0,23.2-20.8c6.3-6.5,9.4-11.4,9.2-14.6h0a1.58,1.58,0,0,0-.5-1,.94.94,0,0,0-.7-.2h0c-3,.4-7.9,3.2-14.5,8.6a224.38,224.38,0,0,0-21.7,20.8,239.11,239.11,0,0,0-21.85,27.2Zm119.1,8.7h0c-.5,1.3-5.1,4.6-13.9,10.1s-15.9,9.2-21.3,11.3-9.9,3.2-13.4,3.3h-.1c-4.4,0-7.5-1.1-9.1-3.2h0c-1.4-2-1.1-4.8.9-8.3h0a74.71,74.71,0,0,1-12.4,4.9,36.14,36.14,0,0,1-12.1,1.4h0c-3-.3-5.3-.8-6.8-1.7a6.82,6.82,0,0,1-2.9-2.6h0c-1.1-2.4-.6-5.3,1.4-8.7a56.93,56.93,0,0,1,8.9-10.8,137.74,137.74,0,0,1,12.2-10.7h0a8.05,8.05,0,0,1,3.9-1.6,10.25,10.25,0,0,1,4.3.3h0c1.3.5,2,1.1,2.1,2a2.75,2.75,0,0,1-1.3,2.5h0c-7.9,6.5-13.4,11.8-16.6,15.9s-4.4,6.8-3.7,8h0c0,.1.1.1.2.2s.3.1.5.2a8.66,8.66,0,0,0,1,.2h0c.3,0,.5.1.8.1h0a29.11,29.11,0,0,0,11.6-3.3,116.78,116.78,0,0,0,13.2-7.7c4.4-3.1,8.6-6.1,12.5-9.2s7-5.6,9.3-7.6h0c2.3-2,4.2-3.5,5.6-4.7h0a9.14,9.14,0,0,1,8.1-1.1h0c1.2.5,1.9,1.1,2.1,2a2.46,2.46,0,0,1-1.2,2.5h0c-10.9,9.2-19,16.8-24.3,22.9s-7.5,9.9-6.6,11.3h.5c2-.3,5.7-1.5,10.9-3.8s10.6-4.8,16.1-7.6,9.9-5.2,13.2-7.2h0a10.41,10.41,0,0,1,4.4-1.2c1.55.1,2.25.7,1.95,1.9ZM465.19,413h0a3.5,3.5,0,0,1,1.1-4,19.55,19.55,0,0,1,4.6-3.2c1.8-.9,3.2-1.5,4.4-2h0a103.79,103.79,0,0,1,10.8-3.9c3.1-.9,5.9-1.6,8.5-2.2h0a8.68,8.68,0,0,0-2.8-2.2c-1.4-.8-2.9-1.5-4.6-2.3h0c-.1,0-.2-.1-.3-.1h0c-1.3-.5-2.5-1.1-3.7-1.7h0a7.35,7.35,0,0,1-2-.9h0a5.06,5.06,0,0,0-.8-.6h0a15.56,15.56,0,0,1-4.6-4.1,6.24,6.24,0,0,1-.6-5.7h0c1.5-3.1,5.2-6.3,11.1-9.5a56.33,56.33,0,0,1,16.9-6.2h0c5.6-.7,9.3.2,11,2.8h0c1.7,2.4.2,5.4-4.6,9A91.45,91.45,0,0,1,493,386h0c1.3,1,2,1.5,2,1.5h0l.1.1h0c2.1.9,4.1,1.9,6.1,3a11.49,11.49,0,0,1,4.3,3.8h0c4-1.4,9.4-4.1,16.4-8.1h0a9.78,9.78,0,0,1,5.6-1.5c1.7.2.8,1.8-2.5,4.9a48,48,0,0,1-10.8,7.5c-3.8,1.9-7.2,3.6-10.1,4.9h0q-4.5,5.1-12.9,8.7a63.67,63.67,0,0,1-14.9,4.6h0a33.49,33.49,0,0,1-4,.3h0a15.24,15.24,0,0,1-4.2-.5A5.13,5.13,0,0,1,466,414a5.77,5.77,0,0,1-.85-1Zm21.4-31.2h0l.1.5a86.7,86.7,0,0,0,11.7-6.4c3-2.1,4.7-3.6,5-4.6h0a24.14,24.14,0,0,0-6.4,2.2,71.38,71.38,0,0,0-6.9,3.7c-2.1,1.3-3.3,2.4-3.6,3.2h0c-.35,1.1-.35,1.6.05,1.4Z"/><path class="cls-3" d="M113.39,472.91V496h2.9v-10.9h10.8V496H130v-23.1h-2.9v9.68h-10.8v-9.7Zm31.5,23.5a10.77,10.77,0,0,0,4-.8,9.68,9.68,0,0,0,5.1-6.2,18.27,18.27,0,0,0,0-10,10.1,10.1,0,0,0-2-3.7,10.22,10.22,0,0,0-3.1-2.4,9,9,0,0,0-4-.9,10,10,0,0,0-4,.8,7.19,7.19,0,0,0-3.1,2.4,10.9,10.9,0,0,0-2,3.7,18.27,18.27,0,0,0,0,10,12.47,12.47,0,0,0,2,3.8,8,8,0,0,0,3.1,2.4A7.62,7.62,0,0,0,144.89,496.41Zm0-2.5a5.37,5.37,0,0,1-2.8-.7,6.28,6.28,0,0,1-2.1-1.9,10.15,10.15,0,0,1-1.4-3,15.39,15.39,0,0,1,0-7.8,7.75,7.75,0,0,1,1.4-2.92,7.47,7.47,0,0,1,2.1-1.9,6.59,6.59,0,0,1,2.8-.6,6.3,6.3,0,0,1,2.8.6,4.88,4.88,0,0,1,2.1,1.9,8.66,8.66,0,0,1,1.4,2.9,14.64,14.64,0,0,1,.5,3.9,15.62,15.62,0,0,1-.5,3.9,10.4,10.4,0,0,1-1.4,3,6,6,0,0,1-4.9,2.62Zm19-18.5v20.7h3v-20.7h7v-2.5H157v2.5Zm14.1-2.5V496h13.7v-2.5h-10.8v-8.4h8.8v-2.52h-8.8v-7.3h10.4v-2.5H178Zm18.6,0V496h13.1v-2.5h-10.1v-20.6Zm25.1,17a4,4,0,0,1,.8-2.4,13.45,13.45,0,0,1,2.1-2.1,44,44,0,0,0,2.8,3.6,26.38,26.38,0,0,0,3.3,3.3,13.46,13.46,0,0,1-2.1,1.4,4.69,4.69,0,0,1-2.3.5,5.81,5.81,0,0,1-1.8-.3,3.35,3.35,0,0,1-1.4-.9,7.16,7.16,0,0,1-1-1.4,3.26,3.26,0,0,1-.4-1.7Zm2.7-12a3.61,3.61,0,0,1,.8-2.4,2.64,2.64,0,0,1,2.1-1,1.87,1.87,0,0,1,1.7.8,2.75,2.75,0,0,1,.5,1.8,3.24,3.24,0,0,1-.3,1.4,3.54,3.54,0,0,1-.9,1.2,6.83,6.83,0,0,1-1.3,1.1c-.5.4-1,.7-1.5,1.1a18.47,18.47,0,0,1-.8-2.1,6.18,6.18,0,0,1-.3-1.9Zm13.5,18.5.8-2.4a11.63,11.63,0,0,1-2-.9,21.36,21.36,0,0,1-2.3-1.4,26,26,0,0,0,2.4-3.9,33.58,33.58,0,0,0,1.7-4.4h-2.8a18.17,18.17,0,0,1-1.4,3.7,24.06,24.06,0,0,1-1.9,3.1,30.29,30.29,0,0,1-3.2-3,21,21,0,0,1-2.6-3.5c.6-.5,1.3-.9,1.9-1.4a13.53,13.53,0,0,0,1.7-1.6,7.25,7.25,0,0,0,1.2-1.8,4.74,4.74,0,0,0,.4-2.1,4.47,4.47,0,0,0-1.2-3.3,4.22,4.22,0,0,0-3.4-1.3,5.21,5.21,0,0,0-2.2.4,9.31,9.31,0,0,0-1.7,1.1,6,6,0,0,0-1.1,1.7,5.2,5.2,0,0,0-.4,2.1,7.68,7.68,0,0,0,.4,2.6,20.33,20.33,0,0,0,1.1,2.8,10.21,10.21,0,0,0-1.7,1.3,18.12,18.12,0,0,0-1.4,1.5,5.23,5.23,0,0,0-1,1.8,7.1,7.1,0,0,0-.4,2.1,7.46,7.46,0,0,0,.5,2.6,6,6,0,0,0,1.4,2,6.2,6.2,0,0,0,2.2,1.3,9.43,9.43,0,0,0,6.6-.2,11.9,11.9,0,0,0,3-1.9,16.27,16.27,0,0,0,2.7,1.6,5.89,5.89,0,0,0,2.7,1.4Zm16.4-21v20.7h3v-20.7h7v-2.5h-16.9v2.5Zm17.1,8.5v-8.6h3.9a8.18,8.18,0,0,1,4.2.9c1,.6,1.4,1.7,1.4,3.2a4.31,4.31,0,0,1-1.4,3.4,6.46,6.46,0,0,1-4.2,1.1Zm9.8,12.1h3.3l-5.9-10.1a6.88,6.88,0,0,0,3.8-2.2,6.56,6.56,0,0,0,1.4-4.3,7.48,7.48,0,0,0-.6-3.1,4.73,4.73,0,0,0-1.7-2,6.73,6.73,0,0,0-2.6-1.1,16.61,16.61,0,0,0-3.3-.3h-7.2V496h2.9v-9.7h4.2Zm17.2-9.4h-7l1.1-3.5,1.2-3.9c.4-1.3.8-2.6,1.1-3.9h.1c.4,1.4.8,2.7,1.1,3.9l1.2,3.9Zm.8,2.4,2.2,7.1h3.1l-7.8-23.1h-3.3l-7.8,23.1h3l2.2-7.1Zm8.6-16.1V496h2.8v-12.1c0-1.2-.1-2.4-.1-3.6a21.86,21.86,0,0,0-.3-3.6h.1l2.5,4.8,8.4,14.6h3V473h-2.8v12c0,1.2.1,2.4.1,3.7s.1,2.5.2,3.6h0l-2.5-4.8-8.4-14.5h-3Zm22.9,18.1-1.8,2.1a10.15,10.15,0,0,0,3.6,2.5,11.37,11.37,0,0,0,4.5.9,9,9,0,0,0,3.3-.5,8.92,8.92,0,0,0,2.5-1.4,6.7,6.7,0,0,0,1.6-2.1,5.7,5.7,0,0,0,.5-2.6,4.87,4.87,0,0,0-.4-2.2,9.36,9.36,0,0,0-1-1.7,6.41,6.41,0,0,0-1.5-1.3,10.77,10.77,0,0,0-1.9-1l-3.3-1.4c-.5-.2-.9-.4-1.4-.6a5.13,5.13,0,0,1-1.2-.8,2.78,2.78,0,0,1-.9-1,3.1,3.1,0,0,1-.3-1.4,2.88,2.88,0,0,1,1.2-2.5,5,5,0,0,1,3.1-.9,6.46,6.46,0,0,1,2.9.6,9,9,0,0,1,2.4,1.6l1.6-1.9a8.08,8.08,0,0,0-3-2.1,9.86,9.86,0,0,0-3.9-.8,8.67,8.67,0,0,0-2.9.5,6.41,6.41,0,0,0-2.3,1.3,8.91,8.91,0,0,0-1.5,1.9,5.27,5.27,0,0,0-.6,2.4,5.06,5.06,0,0,0,.4,2.2,6.27,6.27,0,0,0,1.1,1.7,4.6,4.6,0,0,0,1.5,1.2c.6.3,1.1.6,1.7.9L338,486c.6.3,1.1.5,1.5.7a3.46,3.46,0,0,1,1.2.8,2.27,2.27,0,0,1,.8,1.1,3.36,3.36,0,0,1,.3,1.5,3.1,3.1,0,0,1-1.3,2.7,5.61,5.61,0,0,1-3.6,1.1,8.65,8.65,0,0,1-3.5-.8,10.61,10.61,0,0,1-2.7-2.1Zm18.8-18.1V496h2.9v-23.1Zm9.3,0V496h13.7v-2.5h-10.8v-8.4h8.8v-2.52h-8.8v-7.3h10.4v-2.5h-13.3Zm18.6,0V496h2.8v-12.1c0-1.2-.1-2.4-.1-3.6l-.3-3.6h.1l2.5,4.8,8.4,14.6h3V473H391v12c0,1.2,0,2.4.1,3.7s.1,2.5.2,3.6h-.1l-2.5-4.8-8.4-14.5h-2.9Zm27.6,2.5v20.7h2.9v-20.7h7v-2.5H398v2.5Z"/></svg>